<svg width="34" height="34" viewBox="0 0 34 34" fill="none" xmlns="http://www.w3.org/2000/svg">
<path fill-rule="evenodd" clip-rule="evenodd" d="M29.147 29.1715C30.15 27.6415 30.524 26.8595 31.289 25.1426C25.6451 23.0006 24.7442 14.9598 30.32 11.8829C28.6201 9.74095 26.2231 8.5 23.9622 8.5C22.3302 8.5 21.2083 8.92501 20.2053 9.316C19.3553 9.63899 18.5903 9.92796 17.6384 9.92796C16.6184 9.92796 15.7174 9.60499 14.7654 9.265C13.7285 8.89101 12.6405 8.5 11.2805 8.5C8.74759 8.5 6.04466 10.047 4.32771 12.6989C1.91377 16.4388 2.33877 23.4426 6.23166 29.4264C7.62563 31.5684 9.49557 33.9653 11.9265 33.9993C12.9465 34.0163 13.6095 33.7104 14.3404 33.3874C15.1734 33.0134 16.0744 32.6053 17.6553 32.6053C19.2363 32.5883 20.1203 33.0134 20.9533 33.3874C21.6672 33.7104 22.3132 34.0163 23.3162 33.9993C25.7811 33.9653 27.7531 31.3134 29.147 29.1715Z" fill="#030401"/>
<path fill-rule="evenodd" clip-rule="evenodd" d="M24.0338 0C24.2759 1.78227 23.5949 3.54835 22.7019 4.77974C21.7485 6.10834 20.0836 7.14526 18.4794 7.08045C18.1918 5.363 18.9334 3.59692 19.8415 2.41415C20.8555 1.11795 22.5657 0.113417 24.0338 0Z" fill="#030401"/>
</svg>
