<svg width="24" height="24" viewBox="0 0 24 24" fill="none" xmlns="http://www.w3.org/2000/svg">
<path d="M19.9999 8.25V18C19.9999 21 18.2099 22 15.9999 22H7.99989C5.78989 22 3.99989 21 3.99989 18V8.25C3.99989 5 5.78989 4.25 7.99989 4.25C7.99989 4.87 8.24986 5.43 8.65986 5.84C9.06986 6.25 9.62989 6.5 10.2499 6.5H13.7499C14.9899 6.5 15.9999 5.49 15.9999 4.25C18.2099 4.25 19.9999 5 19.9999 8.25Z" fill="#5892EC"/>
<path d="M15.9999 4.25C15.9999 5.49 14.9899 6.5 13.7499 6.5H10.2499C9.62989 6.5 9.06986 6.25 8.65986 5.84C8.24986 5.43 7.99989 4.87 7.99989 4.25C7.99989 3.01 9.00989 2 10.2499 2H13.7499C14.3699 2 14.9299 2.25 15.3399 2.66C15.7499 3.07 15.9999 3.63 15.9999 4.25Z" fill="#5892EC" stroke="white" stroke-width="1.5" stroke-linecap="round" stroke-linejoin="round"/>
<path d="M7.99989 13H11.9999" stroke="white" stroke-width="1.5" stroke-linecap="round" stroke-linejoin="round"/>
<path d="M7.99989 17H15.9999" stroke="white" stroke-width="1.5" stroke-linecap="round" stroke-linejoin="round"/>
</svg>
