<svg width="12" height="12" viewBox="0 0 12 12" fill="none" xmlns="http://www.w3.org/2000/svg">
<mask id="path-1-inside-1_2441_3465" fill="white">
<path d="M6.00172 8.40001C5.65172 8.40001 5.30172 8.26501 5.03672 8.00001L1.77672 4.74001C1.63172 4.59501 1.63172 4.35501 1.77672 4.21001C1.92172 4.06501 2.16172 4.06501 2.30672 4.21001L5.56672 7.47001C5.80672 7.71001 6.19672 7.71001 6.43672 7.47001L9.69672 4.21001C9.84172 4.06501 10.0817 4.06501 10.2267 4.21001C10.3717 4.35501 10.3717 4.59501 10.2267 4.74001L6.96672 8.00001C6.70172 8.26501 6.35172 8.40001 6.00172 8.40001Z"/>
</mask>
<path d="M6.00172 8.40001C5.65172 8.40001 5.30172 8.26501 5.03672 8.00001L1.77672 4.74001C1.63172 4.59501 1.63172 4.35501 1.77672 4.21001C1.92172 4.06501 2.16172 4.06501 2.30672 4.21001L5.56672 7.47001C5.80672 7.71001 6.19672 7.71001 6.43672 7.47001L9.69672 4.21001C9.84172 4.06501 10.0817 4.06501 10.2267 4.21001C10.3717 4.35501 10.3717 4.59501 10.2267 4.74001L6.96672 8.00001C6.70172 8.26501 6.35172 8.40001 6.00172 8.40001Z" fill="#101010"/>
<path d="M5.03672 8.00001L4.47103 8.56569L4.47103 8.56569L5.03672 8.00001ZM1.77672 4.74001L2.3424 4.17432L2.3424 4.17432L1.77672 4.74001ZM2.30672 4.21001L1.74103 4.77569L2.30672 4.21001ZM5.56672 7.47001L6.1324 6.90432L5.56672 7.47001ZM6.43672 7.47001L7.0024 8.03569L7.0024 8.03569L6.43672 7.47001ZM9.69672 4.21001L9.13103 3.64432L9.13103 3.64432L9.69672 4.21001ZM10.2267 4.74001L9.66103 4.17432L9.66103 4.17432L10.2267 4.74001ZM6.96672 8.00001L7.5324 8.56569L7.5324 8.56569L6.96672 8.00001ZM6.00172 7.60001C5.85655 7.60001 5.71226 7.54418 5.6024 7.43432L4.47103 8.56569C4.89117 8.98583 5.44688 9.20001 6.00172 9.20001V7.60001ZM5.6024 7.43432L2.3424 4.17432L1.21103 5.30569L4.47103 8.56569L5.6024 7.43432ZM2.3424 4.17432C2.50982 4.34174 2.50982 4.60827 2.3424 4.77569L1.21103 3.64432C0.753614 4.10174 0.753614 4.84827 1.21103 5.30569L2.3424 4.17432ZM2.3424 4.77569C2.17498 4.94311 1.90845 4.94311 1.74103 4.77569L2.8724 3.64432C2.41498 3.1869 1.66845 3.1869 1.21103 3.64432L2.3424 4.77569ZM1.74103 4.77569L5.00103 8.03569L6.1324 6.90432L2.8724 3.64432L1.74103 4.77569ZM5.00103 8.03569C5.55345 8.58811 6.44998 8.58811 7.0024 8.03569L5.87103 6.90432C5.94345 6.8319 6.05998 6.8319 6.1324 6.90432L5.00103 8.03569ZM7.0024 8.03569L10.2624 4.77569L9.13103 3.64432L5.87103 6.90432L7.0024 8.03569ZM10.2624 4.77569C10.095 4.94311 9.82845 4.94311 9.66103 4.77569L10.7924 3.64432C10.335 3.1869 9.58845 3.1869 9.13103 3.64432L10.2624 4.77569ZM9.66103 4.77569C9.49361 4.60827 9.49361 4.34174 9.66103 4.17432L10.7924 5.30569C11.2498 4.84827 11.2498 4.10174 10.7924 3.64432L9.66103 4.77569ZM9.66103 4.17432L6.40103 7.43432L7.5324 8.56569L10.7924 5.30569L9.66103 4.17432ZM6.40103 7.43432C6.29117 7.54418 6.14688 7.60001 6.00172 7.60001V9.20001C6.55655 9.20001 7.11227 8.98583 7.5324 8.56569L6.40103 7.43432Z" fill="#101010" mask="url(#path-1-inside-1_2441_3465)"/>
</svg>
