<?xml version="1.0" encoding="UTF-8"?>
<svg version="1.1" xmlns="http://www.w3.org/2000/svg" width="189" height="141">
<path d="M0 0 C-0.33 0.66 -0.66 1.32 -1 2 C-0.11248047 1.94779297 -0.11248047 1.94779297 0.79296875 1.89453125 C5.7553896 1.72452988 8.94253193 1.80320698 13 5 C15 7 15 7 15.25 9.1875 C16.99625952 15.7359732 22.51569909 19.5563692 28 23 C29.35439668 25.70879335 29.06501451 28.00933268 29 31 C28.79375 30.38125 28.5875 29.7625 28.375 29.125 C26.44497351 26.14223179 24.35600815 25.85685314 21 25 C20.67 25 20.34 25 20 25 C21.10281127 26.27200971 22.20730769 27.54255853 23.3125 28.8125 C23.92738281 29.52019531 24.54226562 30.22789063 25.17578125 30.95703125 C26.73334335 32.70136739 28.32658875 34.36778041 30 36 C25.64546078 35.74385063 23.50390232 35.42722153 20.125 32.5625 C18 30 18 30 17 28 C17.50563657 31.74171065 18.11293967 33.5571028 21 36 C22 37 23 38 24 39 C17.375 38.25 17.375 38.25 14 36 C14 35.34 14 34.68 14 34 C13.01 34.495 13.01 34.495 12 35 C14.77079887 38.80984844 18.62868145 39.06840752 23 40 C22.505 40.99 22.505 40.99 22 42 C18.66666667 42 15.33333333 42 12 42 C11.67 42.99 11.34 43.98 11 45 C12.485 45.99 12.485 45.99 14 47 C14 45.68 14 44.36 14 43 C19.08814903 44.74450824 22.76997947 47.0671106 25.6953125 51.6640625 C28.42289191 57.31298379 30.6435981 62.74731799 32.28125 68.80078125 C33.44172489 72.35158214 35.3445835 75.3445835 38 78 C41.56385774 78.94046246 44.45443662 79.04868776 48 78 C50.82689174 75.12059633 52.79865995 72.30539045 54.9921875 68.91796875 C57.90614058 64.6830992 60.64811772 62.8870592 65.5 61.375 C66.2528125 61.13523438 67.005625 60.89546875 67.78125 60.6484375 C68.87953125 60.32746094 68.87953125 60.32746094 70 60 C70.6909375 59.79375 71.381875 59.5875 72.09375 59.375 C74 59 74 59 77 59.625 C80.02804049 60.31830609 80.02804049 60.31830609 82.375 58.5625 C82.91125 58.046875 83.4475 57.53125 84 57 C83.74822234 60.69273902 83.35705971 62.57802035 80.9375 65.4375 C76.76281295 67.65807822 74.59449718 66.96336231 70 66 C69.01 65.67 68.02 65.34 67 65 C60.59331719 66.99319021 58.34637521 71.61829522 55 77 C51.41536394 82.60316899 51.41536394 82.60316899 47.91015625 83.5859375 C45.6875 83.875 45.6875 83.875 42 84 C42.03480469 84.73863281 42.06960937 85.47726563 42.10546875 86.23828125 C42.25388093 91.80020436 42.0407411 96.54022565 40.375 101.875 C38.9753318 106.43205926 39.15378914 108.53022634 41 113 C41.39886689 117.8470998 40.95013764 122.24931178 40 127 C40.185625 127.70125 40.37125 128.4025 40.5625 129.125 C40.7790625 130.053125 40.7790625 130.053125 41 131 C40.34 131.99 39.68 132.98 39 134 C38.29187186 136.32108669 37.61975848 138.65377147 37 141 C34.52076199 141.02685095 32.0418116 141.04676547 29.5625 141.0625 C28.85544922 141.07087891 28.14839844 141.07925781 27.41992188 141.08789062 C25.61306441 141.09653588 23.80612397 141.05220011 22 141 C20.10114904 139.10114904 20.87632494 136.42752097 20.8671875 133.91015625 C21 132 21 132 22 130 C23.98723268 129.29618843 25.98777953 128.6288189 28 128 C29.66342837 126.33657163 29.36048097 124.2174291 29.5625 121.9375 C29.64628906 121.01839844 29.73007813 120.09929687 29.81640625 119.15234375 C29.87699219 118.44207031 29.93757812 117.73179688 30 117 C29.01 116.67 28.02 116.34 27 116 C25.28891311 114.37897032 23.62746694 112.70496537 22 111 C20.7315625 109.8553125 20.7315625 109.8553125 19.4375 108.6875 C15.33008907 104.15881616 12.76100405 99.71729085 12.75 93.5 C12.8325 92.345 12.915 91.19 13 90 C17.68091299 90 18.62101604 90.99645871 22 94 C21.26132371 91.04529485 20.81128426 89.37922933 19 87 C16.28178533 85.60702083 13.61384075 84.70293715 10.69140625 83.82421875 C8 83 8 83 5.9453125 81.8984375 C3.57899712 80.80556092 1.90216462 80.83048907 -0.6875 80.9375 C-2.12413346 80.99157949 -3.56249394 81.02041084 -5 81 C-5.33 80.67 -5.66 80.34 -6 80 C-6.495 85.94 -6.495 85.94 -7 92 C-16.57 92 -26.14 92 -36 92 C-35.9175 94.805 -35.835 97.61 -35.75 100.5 C-35.72631348 101.8003418 -35.72631348 101.8003418 -35.70214844 103.12695312 C-35.42272185 109.61553267 -33.83708643 115.126306 -29.18359375 119.83984375 C-28.60738281 120.20207031 -28.03117187 120.56429687 -27.4375 120.9375 C-26.85871094 121.31777344 -26.27992187 121.69804688 -25.68359375 122.08984375 C-21.8176027 124.17981107 -18.12853421 124.28532349 -13.8125 124.5625 C-11.564375 124.706875 -9.31625 124.85125 -7 125 C-7 130.28 -7 135.56 -7 141 C-20.54714436 141.43350862 -30.09232994 141.49438585 -40.875 132.375 C-46.97277453 126.48629202 -51.69950816 119.30451268 -52.11352539 110.61816406 C-52.10828857 109.75932617 -52.10305176 108.90048828 -52.09765625 108.015625 C-52.09515869 107.17290039 -52.09266113 106.33017578 -52.09008789 105.46191406 C-52.08098389 104.40198242 -52.07187988 103.34205078 -52.0625 102.25 C-52.041875 98.8675 -52.02125 95.485 -52 92 C-60.91 92 -69.82 92 -79 92 C-78.19365487 87.16192921 -77.80487835 85.1205337 -75.5 81.1875 C-75.0565625 80.41792969 -74.613125 79.64835937 -74.15625 78.85546875 C-73 77 -73 77 -72 76 C-70.5112814 75.91330568 -69.018555 75.89296506 -67.52734375 75.90234375 C-66.71773193 75.90484131 -65.90812012 75.90733887 -65.07397461 75.90991211 C-64.03893799 75.91901611 -63.00390137 75.92812012 -61.9375 75.9375 C-58.658125 75.958125 -55.37875 75.97875 -52 76 C-52 66.43 -52 56.86 -52 47 C-68.18237118 55.09118559 -79.71603678 64.70144957 -86 82 C-90.57758812 97.35499735 -88.96572189 113.59345723 -81.6875 127.8125 C-79.349424 131.76530974 -76.47769891 135.11351759 -73.35546875 138.46875 C-72 140 -72 140 -72 141 C-75.41621788 141.14539953 -78.83163991 141.23409725 -82.25 141.3125 C-83.70212891 141.3753418 -83.70212891 141.3753418 -85.18359375 141.43945312 C-92.3579699 141.56314927 -92.3579699 141.56314927 -95.51171875 138.796875 C-96.00285156 137.87390625 -96.49398437 136.9509375 -97 136 C-97.45503906 135.18402344 -97.91007812 134.36804688 -98.37890625 133.52734375 C-98.96478516 132.24537109 -98.96478516 132.24537109 -99.5625 130.9375 C-99.95566406 130.10089844 -100.34882812 129.26429688 -100.75390625 128.40234375 C-104.1598491 119.10273178 -105.48544462 110.37865767 -105.375 100.5 C-105.38660156 99.46230469 -105.39820312 98.42460938 -105.41015625 97.35546875 C-105.33984382 78.53517628 -97.6622065 61.74384196 -85.03515625 47.9375 C-71.57836524 35.12642832 -54.65708027 27 -36 27 C-36 32.28 -36 37.56 -36 43 C-34.865625 43.061875 -33.73125 43.12375 -32.5625 43.1875 C-27.35280352 43.80259833 -23.38154014 46.25139496 -19 49 C-18.49339844 47.96939453 -18.49339844 47.96939453 -17.9765625 46.91796875 C-17.30753906 45.56638672 -17.30753906 45.56638672 -16.625 44.1875 C-15.96371094 42.84751953 -15.96371094 42.84751953 -15.2890625 41.48046875 C-14 39 -14 39 -12 36 C-12.31506627 32.85778033 -12.31506627 32.85778033 -13 30 C-10.13275314 30.57344937 -9.1385485 30.8614515 -7 33 C-4.67724823 33.40047444 -2.34260643 33.7397104 0 34 C0.33 33.01 0.66 32.02 1 31 C-1.31 31.33 -3.62 31.66 -6 32 C-6.99 30.02 -6.99 30.02 -8 28 C-8.66 28.33 -9.32 28.66 -10 29 C-12.3329866 29.04022391 -14.66706666 29.04320247 -17 29 C-19.13657538 25.43904103 -19.78253778 22.13178222 -20 18 C-18.6875 15.0625 -18.6875 15.0625 -17 13 C-16.34 13 -15.68 13 -15 13 C-14.62875 11.7934375 -14.62875 11.7934375 -14.25 10.5625 C-13 8 -13 8 -10.875 7.1875 C-10.25625 7.125625 -9.6375 7.06375 -9 7 C-8.814375 5.5459375 -8.814375 5.5459375 -8.625 4.0625 C-8.41875 3.051875 -8.2125 2.04125 -8 1 C-5.29120665 -0.35439668 -2.99066732 -0.06501451 0 0 Z M0 6 C0 6.33 0 6.66 0 7 C2.97 7 5.94 7 9 7 C9 6.67 9 6.34 9 6 C6.03 6 3.06 6 0 6 Z M15 19 C15 19.66 15 20.32 15 21 C15.66 20.67 16.32 20.34 17 20 C16.34 19.67 15.68 19.34 15 19 Z M5 22 C5 23.65 5 25.3 5 27 C5.99 27 6.98 27 8 27 C8 26.01 8 25.02 8 24 C7.34 24 6.68 24 6 24 C5.67 23.34 5.34 22.68 5 22 Z M14 23 C14.99 24.485 14.99 24.485 16 26 C16 25.01 16 24.02 16 23 C15.34 23 14.68 23 14 23 Z M-12 24 C-11 26 -11 26 -11 26 Z M-5 26 C-1 27 -1 27 -1 27 Z M-6 34 C-5 37 -5 37 -5 37 Z M-2 35 C-1 37 -1 37 -1 37 Z M1 35 C0.67 38.96 0.34 42.92 0 47 C0.99 46.67 1.98 46.34 3 46 C2.67 42.37 2.34 38.74 2 35 C1.67 35 1.34 35 1 35 Z M-5 38 C-5 39.65 -5 41.3 -5 43 C-4.67 43 -4.34 43 -4 43 C-4 41.35 -4 39.7 -4 38 C-4.33 38 -4.66 38 -5 38 Z M10 38 C11 40 11 40 11 40 Z M7 39 C7 41.97 7 44.94 7 48 C7.33 48 7.66 48 8 48 C8.67673447 44.59679066 8.67673447 44.59679066 9 41 C8.34 40.34 7.68 39.68 7 39 Z M-10 41 C-9 43 -9 43 -9 43 Z M-12 43 C-11.67 44.32 -11.34 45.64 -11 47 C-10.67 46.01 -10.34 45.02 -10 44 C-10.66 43.67 -11.32 43.34 -12 43 Z M-6 45 C-7.14352916 47.28705831 -7.10334439 48.59264762 -7.0625 51.125 C-7.041875 52.40375 -7.02125 53.6825 -7 55 C-6.67 54.34 -6.34 53.68 -6 53 C-5.34 53 -4.68 53 -4 53 C-4 50.36 -4 47.72 -4 45 C-4.66 45 -5.32 45 -6 45 Z M-13 47 C-12 50 -12 50 -12 50 Z M-1 47 C-1.6814823 48.89179203 -1.6814823 48.89179203 -2 51 C-1.34 51.66 -0.68 52.32 0 53 C0 51.02 0 49.04 0 47 C-0.33 47 -0.66 47 -1 47 Z M-29 51 C-29.33 51.66 -29.66 52.32 -30 53 C-31.2065625 52.9690625 -31.2065625 52.9690625 -32.4375 52.9375 C-34.93354885 52.70366379 -34.93354885 52.70366379 -36 54 C-36.08700342 55.63472882 -36.10701063 57.27314055 -36.09765625 58.91015625 C-36.09515869 59.800979 -36.09266113 60.69180176 -36.09008789 61.60961914 C-36.08098389 62.74906982 -36.07187988 63.88852051 -36.0625 65.0625 C-36.041875 68.671875 -36.02125 72.28125 -36 76 C-27.75 76 -19.5 76 -11 76 C-10.4433331 68.7874176 -10.4433331 68.7874176 -12.0625 65.6875 C-14.06144625 63.7626454 -14.06144625 63.7626454 -17.375 62.625 C-21.82791285 60.62886665 -23.24711405 58.96739445 -26 55 C-26.8125 52.625 -26.8125 52.625 -27 51 C-27.66 51 -28.32 51 -29 51 Z M-11 52 C-11.99 52.495 -11.99 52.495 -13 53 C-12.67 54.32 -12.34 55.64 -12 57 C-10.68 56.67 -9.36 56.34 -8 56 C-8.99 54.68 -9.98 53.36 -11 52 Z M2 54 C2 54.66 2 55.32 2 56 C2.66 55.67 3.32 55.34 4 55 C3.34 54.67 2.68 54.34 2 54 Z M21 61 C20.71125 62.216875 20.4225 63.43375 20.125 64.6875 C19.0475236 67.68753233 18.3615002 68.77790184 15.609375 70.46875 C13.82220412 71.26531759 12.01154258 72.01160938 10.1796875 72.69921875 C7.72753734 73.83136194 7.72753734 73.83136194 7.1953125 76.64453125 C7.13085938 77.42183594 7.06640625 78.19914062 7 79 C12.37168126 77.42780061 18.35465674 75.64685654 21.4375 70.6875 C22.12461831 67.40460141 22.13114096 64.34409446 22 61 C21.67 61 21.34 61 21 61 Z M5 71 C6 73 6 73 6 73 Z M0 77 C1 79 1 79 1 79 Z M23 100 C24 104 24 104 24 104 Z M24 104 C25 106 25 106 25 106 Z " fill="#179CD7" transform="translate(105,0)"/>
<path d="M0 0 C-0.33 0.66 -0.66 1.32 -1 2 C-0.40832031 1.96519531 0.18335938 1.93039063 0.79296875 1.89453125 C5.7553896 1.72452988 8.94253193 1.80320698 13 5 C15 7 15 7 15.25 9.1875 C16.99625952 15.7359732 22.51569909 19.5563692 28 23 C29.35439668 25.70879335 29.06501451 28.00933268 29 31 C28.690625 30.071875 28.690625 30.071875 28.375 29.125 C26.44497351 26.14223179 24.35600815 25.85685314 21 25 C20.67 25 20.34 25 20 25 C21.10281127 26.27200971 22.20730769 27.54255853 23.3125 28.8125 C24.23482422 29.87404297 24.23482422 29.87404297 25.17578125 30.95703125 C26.73334335 32.70136739 28.32658875 34.36778041 30 36 C25.64546078 35.74385063 23.50390232 35.42722153 20.125 32.5625 C18 30 18 30 17 28 C17.50563657 31.74171065 18.11293967 33.5571028 21 36 C22 37 23 38 24 39 C17.375 38.25 17.375 38.25 14 36 C14 35.34 14 34.68 14 34 C13.01 34.495 13.01 34.495 12 35 C14.77079887 38.80984844 18.62868145 39.06840752 23 40 C22.505 40.99 22.505 40.99 22 42 C18.66666667 42 15.33333333 42 12 42 C11.67 42.99 11.34 43.98 11 45 C11.99 45.66 12.98 46.32 14 47 C14 45.68 14 44.36 14 43 C19.08814903 44.74450824 22.76997947 47.0671106 25.6953125 51.6640625 C28.42289191 57.31298379 30.6435981 62.74731799 32.28125 68.80078125 C33.44172489 72.35158214 35.3445835 75.3445835 38 78 C41.56385774 78.94046246 44.45443662 79.04868776 48 78 C50.82689174 75.12059633 52.79865995 72.30539045 54.9921875 68.91796875 C57.90614058 64.6830992 60.64811772 62.8870592 65.5 61.375 C66.2528125 61.13523438 67.005625 60.89546875 67.78125 60.6484375 C68.5134375 60.43445312 69.245625 60.22046875 70 60 C70.6909375 59.79375 71.381875 59.5875 72.09375 59.375 C74 59 74 59 77 59.625 C80.02804049 60.31830609 80.02804049 60.31830609 82.375 58.5625 C82.91125 58.046875 83.4475 57.53125 84 57 C83.74822234 60.69273902 83.35705971 62.57802035 80.9375 65.4375 C76.76281295 67.65807822 74.59449718 66.96336231 70 66 C68.515 65.505 68.515 65.505 67 65 C60.59331719 66.99319021 58.34637521 71.61829522 55 77 C51.41536394 82.60316899 51.41536394 82.60316899 47.91015625 83.5859375 C45.6875 83.875 45.6875 83.875 42 84 C42.05220703 85.10794922 42.05220703 85.10794922 42.10546875 86.23828125 C42.25388093 91.80020436 42.0407411 96.54022565 40.375 101.875 C38.9753318 106.43205926 39.15378914 108.53022634 41 113 C41.39886689 117.8470998 40.95013764 122.24931178 40 127 C40.185625 127.70125 40.37125 128.4025 40.5625 129.125 C40.7790625 130.053125 40.7790625 130.053125 41 131 C40.34 131.99 39.68 132.98 39 134 C38.29187186 136.32108669 37.61975848 138.65377147 37 141 C34.52076199 141.02685095 32.0418116 141.04676547 29.5625 141.0625 C28.85544922 141.07087891 28.14839844 141.07925781 27.41992188 141.08789062 C25.61306441 141.09653588 23.80612397 141.05220011 22 141 C20.10114904 139.10114904 20.87632494 136.42752097 20.8671875 133.91015625 C21 132 21 132 22 130 C23.98723268 129.29618843 25.98777953 128.6288189 28 128 C29.66342837 126.33657163 29.36048097 124.2174291 29.5625 121.9375 C29.68818359 120.55884766 29.68818359 120.55884766 29.81640625 119.15234375 C29.87699219 118.44207031 29.93757813 117.73179688 30 117 C28.515 116.505 28.515 116.505 27 116 C25.28891311 114.37897032 23.62746694 112.70496537 22 111 C20.7315625 109.8553125 20.7315625 109.8553125 19.4375 108.6875 C15.33008907 104.15881616 12.76100405 99.71729085 12.75 93.5 C12.8325 92.345 12.915 91.19 13 90 C17.68091299 90 18.62101604 90.99645871 22 94 C21.26132371 91.04529485 20.81128426 89.37922933 19 87 C16.28178533 85.60702083 13.61384075 84.70293715 10.69140625 83.82421875 C8 83 8 83 5.94921875 81.90234375 C3.57582213 80.8036371 1.85069965 80.79850883 -0.75 80.875 C-1.54921875 80.89304687 -2.3484375 80.91109375 -3.171875 80.9296875 C-3.77515625 80.95289062 -4.3784375 80.97609375 -5 81 C-5.28617188 80.35546875 -5.57234375 79.7109375 -5.8671875 79.046875 C-6.81418662 76.80115872 -6.81418662 76.80115872 -9.125 76.25 C-9.74375 76.1675 -10.3625 76.085 -11 76 C-11.12375 74.7625 -11.2475 73.525 -11.375 72.25 C-11.89051873 67.82776632 -11.89051873 67.82776632 -14 64 C-14.7425 63.855625 -15.485 63.71125 -16.25 63.5625 C-21.20011019 62.54997746 -24.27652315 59.08521527 -27 55 C-27 53.68 -27 52.36 -27 51 C-27.66 51 -28.32 51 -29 51 C-29.33 51.99 -29.66 52.98 -30 54 C-36.75 54.125 -36.75 54.125 -39 53 C-40.99551782 52.64080679 -42.99548879 52.30503431 -45 52 C-45 50.02 -45 48.04 -45 46 C-40.37583715 43.22550229 -36.323315 41.86681908 -31 43 C-26.85799875 44.7555165 -22.92334789 46.80292518 -19 49 C-18.66226563 48.31292969 -18.32453125 47.62585937 -17.9765625 46.91796875 C-17.53054687 46.01691406 -17.08453125 45.11585937 -16.625 44.1875 C-16.18414062 43.29417969 -15.74328125 42.40085938 -15.2890625 41.48046875 C-14 39 -14 39 -12 36 C-12.31506627 32.85778033 -12.31506627 32.85778033 -13 30 C-10.13275314 30.57344937 -9.1385485 30.8614515 -7 33 C-4.67724823 33.40047444 -2.34260643 33.7397104 0 34 C0.33 33.01 0.66 32.02 1 31 C-1.31 31.33 -3.62 31.66 -6 32 C-6.66 30.68 -7.32 29.36 -8 28 C-8.99 28.495 -8.99 28.495 -10 29 C-12.3329866 29.04022391 -14.66706666 29.04320247 -17 29 C-19.13657538 25.43904103 -19.78253778 22.13178222 -20 18 C-18.6875 15.0625 -18.6875 15.0625 -17 13 C-16.34 13 -15.68 13 -15 13 C-14.7525 12.195625 -14.505 11.39125 -14.25 10.5625 C-13 8 -13 8 -10.875 7.1875 C-10.25625 7.125625 -9.6375 7.06375 -9 7 C-8.814375 5.5459375 -8.814375 5.5459375 -8.625 4.0625 C-8.41875 3.051875 -8.2125 2.04125 -8 1 C-5.29120665 -0.35439668 -2.99066732 -0.06501451 0 0 Z M0 6 C0 6.33 0 6.66 0 7 C2.97 7 5.94 7 9 7 C9 6.67 9 6.34 9 6 C6.03 6 3.06 6 0 6 Z M15 19 C15 19.66 15 20.32 15 21 C15.66 20.67 16.32 20.34 17 20 C16.34 19.67 15.68 19.34 15 19 Z M5 22 C5 23.65 5 25.3 5 27 C5.99 27 6.98 27 8 27 C8 26.01 8 25.02 8 24 C7.34 24 6.68 24 6 24 C5.67 23.34 5.34 22.68 5 22 Z M14 23 C14.99 24.485 14.99 24.485 16 26 C16 25.01 16 24.02 16 23 C15.34 23 14.68 23 14 23 Z M-12 24 C-11 26 -11 26 -11 26 Z M-5 26 C-1 27 -1 27 -1 27 Z M-6 34 C-5 37 -5 37 -5 37 Z M-2 35 C-1 37 -1 37 -1 37 Z M1 35 C0.67 38.96 0.34 42.92 0 47 C0.99 46.67 1.98 46.34 3 46 C2.67 42.37 2.34 38.74 2 35 C1.67 35 1.34 35 1 35 Z M-5 38 C-5 39.65 -5 41.3 -5 43 C-4.67 43 -4.34 43 -4 43 C-4 41.35 -4 39.7 -4 38 C-4.33 38 -4.66 38 -5 38 Z M10 38 C11 40 11 40 11 40 Z M7 39 C7 41.97 7 44.94 7 48 C7.33 48 7.66 48 8 48 C8.67673447 44.59679066 8.67673447 44.59679066 9 41 C8.34 40.34 7.68 39.68 7 39 Z M-10 41 C-9 43 -9 43 -9 43 Z M-12 43 C-11.67 44.32 -11.34 45.64 -11 47 C-10.67 46.01 -10.34 45.02 -10 44 C-10.66 43.67 -11.32 43.34 -12 43 Z M-6 45 C-7.14352916 47.28705831 -7.10334439 48.59264762 -7.0625 51.125 C-7.041875 52.40375 -7.02125 53.6825 -7 55 C-6.67 54.34 -6.34 53.68 -6 53 C-5.34 53 -4.68 53 -4 53 C-4 50.36 -4 47.72 -4 45 C-4.66 45 -5.32 45 -6 45 Z M-13 47 C-12 50 -12 50 -12 50 Z M-1 47 C-1.6814823 48.89179203 -1.6814823 48.89179203 -2 51 C-1.34 51.66 -0.68 52.32 0 53 C0 51.02 0 49.04 0 47 C-0.33 47 -0.66 47 -1 47 Z M-11 52 C-11.99 52.495 -11.99 52.495 -13 53 C-12.67 54.32 -12.34 55.64 -12 57 C-10.68 56.67 -9.36 56.34 -8 56 C-8.99 54.68 -9.98 53.36 -11 52 Z M2 54 C2 54.66 2 55.32 2 56 C2.66 55.67 3.32 55.34 4 55 C3.34 54.67 2.68 54.34 2 54 Z M21 61 C20.71125 62.216875 20.4225 63.43375 20.125 64.6875 C19.0475236 67.68753233 18.3615002 68.77790184 15.609375 70.46875 C13.82220412 71.26531759 12.01154258 72.01160938 10.1796875 72.69921875 C7.72753734 73.83136194 7.72753734 73.83136194 7.1953125 76.64453125 C7.13085938 77.42183594 7.06640625 78.19914062 7 79 C12.37168126 77.42780061 18.35465674 75.64685654 21.4375 70.6875 C22.12461831 67.40460141 22.13114096 64.34409446 22 61 C21.67 61 21.34 61 21 61 Z M5 71 C6 73 6 73 6 73 Z M0 77 C1 79 1 79 1 79 Z M23 100 C24 104 24 104 24 104 Z M24 104 C25 106 25 106 25 106 Z " fill="#1993D1" transform="translate(105,0)"/>
<path d="M0 0 C5.28 0 10.56 0 16 0 C16.226875 2.000625 16.45375 4.00125 16.6875 6.0625 C17.75500644 12.83564431 19.19788134 17.008018 24.61328125 21.26953125 C30.84581602 25.04642063 37.90234856 24.72701341 45 25 C45 30.28 45 35.56 45 41 C31.45285564 41.43350862 21.90767006 41.49438585 11.125 32.375 C4.68493749 26.15573963 0.17707656 18.86477575 -0.09765625 9.765625 C-0.06510417 6.51041667 -0.03255208 3.25520833 0 0 Z " fill="#1CBCEF" transform="translate(53,100)"/>
<path d="M0 0 C0 5.28 0 10.56 0 16 C-1.299375 16.37125 -2.59875 16.7425 -3.9375 17.125 C-6.14598516 17.85908827 -6.14598516 17.85908827 -8 19 C-9.14031566 22.07797583 -9.14031566 22.07797583 -9 25 C-7.88625 24.95875 -6.7725 24.9175 -5.625 24.875 C-2 25 -2 25 0 27 C0.24291992 29.23071289 0.24291992 29.23071289 0.23046875 31.97265625 C0.22853516 32.95427734 0.22660156 33.93589844 0.22460938 34.94726562 C0.20624023 36.48930664 0.20624023 36.48930664 0.1875 38.0625 C0.18685547 39.09439453 0.18621094 40.12628906 0.18554688 41.18945312 C0.14015997 48.85984003 0.14015997 48.85984003 -1 50 C-5.95 50 -10.9 50 -16 50 C-16 34.16 -16 18.32 -16 2 C-8 0 -8 0 0 0 Z " fill="#1CBCEE" transform="translate(69,27)"/>
<path d="M0 0 C5.28 0 10.56 0 16 0 C16 1.32 16 2.64 16 4 C10.72 4 5.44 4 0 4 C0 2.68 0 1.36 0 0 Z " fill="#17A2DC" transform="translate(53,96)"/>
<path d="M0 0 C5.28 0 10.56 0 16 0 C16 1.32 16 2.64 16 4 C10.72 4 5.44 4 0 4 C0 2.68 0 1.36 0 0 Z " fill="#157CC1" transform="translate(53,92)"/>
<path d="M0 0 C3.53600465 1.91135386 5.78972846 3.62642766 8 7 C7 8 7 8 3.4375 8.0625 C2.303125 8.041875 1.16875 8.02125 0 8 C-1.125 6.25 -1.125 6.25 -2 4 C-1.125 1.75 -1.125 1.75 0 0 Z " fill="#1D84C6" transform="translate(88,21)"/>
</svg>
