<svg width="25" height="24" viewBox="0 0 25 24" fill="none" xmlns="http://www.w3.org/2000/svg">
<path d="M8.60009 19H8.09421C4.04715 19 2.02362 18 2.02362 13V8C2.02362 4 4.04715 2 8.09421 2H16.1883C20.2354 2 22.2589 4 22.2589 8V13C22.2589 17 20.2354 19 16.1883 19H15.6824C15.3688 19 15.0653 19.15 14.873 19.4L13.3554 21.4C12.6876 22.28 11.5949 22.28 10.9272 21.4L9.4095 19.4C9.24762 19.18 8.87327 19 8.60009 19Z" fill="#5892EC"/>
<path fill-rule="evenodd" clip-rule="evenodd" d="M16.1847 11H16.1938H16.1847Z" fill="#5892EC"/>
<path d="M16.1847 11H16.1938" stroke="white" stroke-width="2" stroke-linecap="round" stroke-linejoin="round"/>
<path d="M12.1367 11H12.1458" stroke="white" stroke-width="2" stroke-linecap="round" stroke-linejoin="round"/>
<path d="M8.08864 11H8.09773" stroke="white" stroke-width="2" stroke-linecap="round" stroke-linejoin="round"/>
</svg>
