<svg width="30" height="30" viewBox="0 0 30 30" fill="none" xmlns="http://www.w3.org/2000/svg">
<path d="M7.11276 17.9555L6.12652 21.6373L2.52182 21.7135C1.44454 19.7154 0.833496 17.4293 0.833496 15C0.833496 12.6508 1.40481 10.4355 2.41751 8.48486H2.41828L5.62748 9.07322L7.0333 12.2632C6.73906 13.121 6.57869 14.0418 6.57869 15C6.5788 16.0399 6.76717 17.0363 7.11276 17.9555Z" fill="#FBBB00"/>
<path d="M28.9192 12.3535C29.0819 13.2105 29.1667 14.0955 29.1667 15C29.1667 16.0143 29.0601 17.0036 28.857 17.9579C28.1673 21.2054 26.3653 24.041 23.8691 26.0477L23.8683 26.0469L19.8262 25.8407L19.2541 22.2694C20.9105 21.298 22.2049 19.7778 22.8868 17.9579H15.3115V12.3535H22.9973H28.9192Z" fill="#518EF8"/>
<path d="M23.8685 26.0469L23.8693 26.0477C21.4415 27.9991 18.3575 29.1667 15.0003 29.1667C9.60531 29.1667 4.91476 26.1512 2.52197 21.7136L7.11291 17.9556C8.30928 21.1485 11.3894 23.4214 15.0003 23.4214C16.5524 23.4214 18.0065 23.0018 19.2542 22.2694L23.8685 26.0469Z" fill="#28B446"/>
<path d="M24.0427 4.09493L19.4533 7.8522C18.162 7.04503 16.6355 6.57875 15.0001 6.57875C11.3075 6.57875 8.16976 8.95593 7.03333 12.2633L2.41826 8.48505H2.41748C4.77524 3.93926 9.52494 0.833496 15.0001 0.833496C18.4375 0.833496 21.5892 2.05792 24.0427 4.09493Z" fill="#F14336"/>
</svg>
