<svg width="48" height="48" viewBox="0 0 48 48" fill="none" xmlns="http://www.w3.org/2000/svg">
<g clip-path="url(#clip0_0_109)">
<path d="M47.9949 22.2838C48.0238 19.6152 47.7293 16.953 47.1178 14.3553C46.3303 15.9406 44.9942 17.1862 43.3577 17.8609C43.2344 17.9978 43.1228 18.1386 43.0025 18.2982C42.2075 19.4176 41.032 20.2092 39.6958 20.5253C39.4052 20.6231 39.0845 20.558 38.855 20.3549C38.6254 20.1518 38.5218 19.8414 38.5834 19.5411C38.645 19.2408 38.8624 18.9963 39.1534 18.8999C39.7034 18.7335 40.2283 18.4938 40.7143 18.1873C39.9593 18.0716 39.2205 17.8675 38.5132 17.5792C37.9883 17.3418 37.4273 17.1938 36.8536 17.1414C36.3803 17.1414 35.9966 16.7578 35.9966 16.2844C35.9966 15.811 36.3802 15.4274 36.8536 15.4274C37.6327 15.4726 38.3974 15.6575 39.1112 15.9731C40.183 16.5209 41.421 16.6477 42.5816 16.3287C45.4263 15.3805 46.295 11.8394 46.3034 11.8034L46.3037 11.8027C44.3214 6.63768 40.659 3.66942 35.6976 3.4602C35.1795 4.42081 34.4275 5.23538 33.5113 5.82855C33.4751 5.85573 33.4428 5.88198 33.4071 5.90888C33.415 5.93888 33.4211 5.96934 33.4255 6.00009C33.4799 6.26808 33.6085 6.51545 33.7967 6.71398C34.5731 7.55761 34.7317 8.79981 34.1921 9.81151C33.9798 10.2337 33.4658 10.4044 33.0431 10.193C32.6204 9.98164 32.4485 9.46806 32.6589 9.04493C32.9476 8.46752 32.7895 8.24733 32.4065 7.71669C32.2943 7.56108 32.1766 7.38495 32.0665 7.19635C31.8972 7.43932 31.7629 7.70497 31.6675 7.98533C30.6272 11.1063 28.3788 11.1423 28.2833 11.1423C27.8101 11.1423 27.4263 10.7586 27.4263 10.2853C27.4263 9.81189 27.81 9.42822 28.2833 9.42822C28.3068 9.42569 29.409 9.3403 30.0413 7.44297C30.5024 6.20518 31.361 5.15524 32.4827 4.45765C32.8511 4.19462 33.1992 3.90423 33.5239 3.5888C31.3879 3.99384 29.4203 5.02419 27.8708 6.5492C27.6622 6.75392 27.3638 6.83847 27.0789 6.77341C26.794 6.70836 26.5618 6.5028 26.4627 6.22777C25.8618 4.48399 25.3775 2.70206 25.0132 0.893971C24.9467 0.576766 24.7074 0.323958 24.3942 0.240345C23.1024 -0.0553941 21.7633 -0.0790157 20.4619 0.170886C20.028 0.258905 19.7287 0.657848 19.7655 1.09907C20.127 5.072 22.3076 9.79726 24.0732 13.0614C24.8771 14.5327 25.521 16.0861 25.9939 17.6947C26.1808 18.3326 26.3265 18.982 26.43 19.6386C26.7508 19.5487 27.0364 19.3631 27.2489 19.1066C27.9436 18.331 28.9589 17.9216 29.9973 17.9985C30.4706 17.9985 30.8544 18.3821 30.8544 18.8555C30.8544 19.3288 30.4707 19.7125 29.9973 19.7125C29.4149 19.6361 28.8342 19.865 28.4607 20.3185C27.9672 20.8708 27.298 21.2359 26.5663 21.352C26.5665 21.3767 26.5692 21.4018 26.5692 21.4265C26.5615 23.1995 26.2102 24.9543 25.5346 26.5936C26.4036 26.5669 27.2323 26.9597 27.7618 27.6491C28.0019 27.9586 28.3119 28.2068 28.6665 28.3731C29.0099 28.543 29.3167 28.7786 29.5695 29.0665C30.1748 28.8872 30.7632 28.6551 31.328 28.3731C31.7512 28.1627 32.2648 28.3346 32.4761 28.7573C32.6874 29.1799 32.5168 29.694 32.0946 29.9063C31.4865 30.2082 30.8554 30.4609 30.207 30.6623C30.2255 31.1569 30.1224 31.6485 29.9068 32.0941C29.6945 32.5163 29.1804 32.687 28.7577 32.4756C28.3351 32.2642 28.1632 31.7507 28.3735 31.3275C28.5061 31.0722 28.5382 30.7765 28.4638 30.4986C28.4059 30.4221 28.3617 30.3362 28.3331 30.2446C28.2161 30.1005 28.0679 29.9849 27.8998 29.9064C27.3398 29.6376 26.8472 29.2466 26.4582 28.7622C26.1775 28.4325 26.0489 28.2827 24.855 28.2827C24.8104 28.2775 24.7663 28.2686 24.723 28.2561C22.9589 31.3139 20.1349 33.4248 17.1418 33.4248C15.9182 33.4244 14.7111 33.1418 13.6146 32.5987C12.31 31.9734 10.8748 31.669 9.42869 31.7107C5.97346 31.6479 2.64188 32.9958 0.202288 35.4434C0.0723687 35.5982 0.00131628 35.7938 0.00141002 35.9958V39.4239C-0.0119943 39.721 0.158044 39.9961 0.42988 40.1168C0.761239 40.2655 1.14903 40.2051 1.41955 39.9628C3.68629 38.0935 6.49436 37.0032 9.4286 36.8527C13.3652 36.8527 14.8047 39.4431 16.1973 41.9488C17.5018 44.2959 18.8507 46.6997 22.388 47.6095C22.4249 47.5283 22.4745 47.4536 22.535 47.3881C24.1306 45.792 24.1206 45.0723 24.042 44.8371C23.7709 44.0166 23.288 43.2821 22.6422 42.708C21.898 42.1186 21.453 41.2299 21.4269 40.2809C21.3379 39.5091 20.8712 38.8318 20.1815 38.4739C19.7627 38.2588 19.5959 37.7461 19.8079 37.3257C20.0198 36.9052 20.5311 36.7345 20.9532 36.9431C21.327 37.1455 21.671 37.3985 21.9754 37.6951C22.1308 37.4365 22.2355 37.1506 22.284 36.8527C22.284 36.3795 22.6677 35.9957 23.141 35.9957C23.6143 35.9957 23.9981 36.3794 23.9981 36.8527C23.959 37.4422 23.7812 38.014 23.4792 38.5216C23.3112 38.7987 23.1965 39.1047 23.141 39.4239C23.1381 39.518 23.1193 39.6109 23.0856 39.6987C23.1211 39.8908 23.1396 40.0855 23.141 40.2808C23.141 40.7587 23.3243 40.9663 23.8541 41.4961C24.3392 41.9541 24.7598 42.4758 25.1044 43.047C25.2047 42.9765 25.3075 42.9056 25.4133 42.8334C26.5193 42.0776 27.373 41.4131 27.4236 40.3787C27.357 40.3209 27.2403 40.238 27.1495 40.1736C26.2605 39.6722 25.711 38.7303 25.7121 37.7096C25.7121 37.2363 26.0957 36.8526 26.5691 36.8526C27.0425 36.8526 27.4261 37.2362 27.4261 37.7096C27.4261 38.2461 27.6576 38.4335 28.1392 38.7742C28.3351 38.9063 28.5183 39.0567 28.686 39.2232C29.0222 38.7936 29.1843 38.2533 29.1401 37.7096C29.1401 37.2363 29.5238 36.8526 29.9971 36.8526C30.4704 36.8526 30.8542 37.2362 30.8542 37.7096C30.8542 39.4901 30.042 40.5871 29.0712 40.9726C28.7544 42.6214 27.3503 43.5858 26.3799 44.2486C26.1702 44.3917 25.9086 44.5719 25.7579 44.6999C25.9226 45.9222 25.0703 47.1445 24.3766 47.9349C24.7995 47.9698 25.2384 47.9938 25.7121 47.9938C29.0714 48.0614 32.4133 47.4937 35.5619 46.3207C34.8835 45.5733 34.7092 44.4964 35.1171 43.5731C33.9225 43.4217 32.9353 42.5687 32.6122 41.4088C32.4624 40.9597 32.7051 40.4744 33.1541 40.3246C33.6032 40.1748 34.0886 40.4175 34.2383 40.8665C34.3914 41.499 34.9663 41.9381 35.6167 41.9193C36.1367 41.9254 36.6186 42.1928 36.899 42.6307C37.0863 43.112 37.0358 43.6534 36.763 44.0919C36.6138 44.3386 36.5804 44.6384 36.6717 44.9118C36.7629 45.1854 36.9694 45.4051 37.2367 45.513C37.2521 45.5207 37.2609 45.5349 37.2756 45.5434C41.4997 43.3667 44.4764 39.7575 46.2059 34.7157C45.6985 34.3285 45.2317 33.8908 44.8127 33.4092C43.9648 32.4978 43.2321 31.7103 41.9955 31.7103C41.2216 31.6745 40.4677 31.9618 39.9141 32.5037C39.3234 33.0796 38.5353 33.4088 37.7104 33.4242C37.2372 33.4242 36.8534 33.0406 36.8534 32.5672C36.8534 32.0938 37.2371 31.7102 37.7104 31.7102C38.1565 31.7102 38.3763 31.5461 38.8298 31.1753C39.1665 30.8844 39.5367 30.635 39.9328 30.4325C39.7758 30.2579 39.5919 30.1094 39.3881 29.9927C39.163 29.9923 38.9474 29.9015 38.7897 29.7407C38.6321 29.5798 38.5455 29.3625 38.5496 29.1374C38.5581 28.6609 38.948 28.2798 39.4246 28.282C40.1772 28.3857 40.8577 28.7844 41.316 29.3902C41.5245 29.6257 41.7652 29.8308 42.031 29.9988C43.9915 30.0143 45.1429 31.2477 46.0677 32.2416C46.2963 32.4872 46.5191 32.724 46.7427 32.9348C47.6238 29.4551 48.0448 25.8738 47.9949 22.2838Z" fill="#656EC3"/>
</g>
<defs>
<clipPath id="clip0_0_109">
<rect width="48" height="48" fill="white"/>
</clipPath>
</defs>
</svg>
