<svg width="48" height="48" viewBox="0 0 48 48" fill="none" xmlns="http://www.w3.org/2000/svg">
<path d="M43.1988 20.2042C43.876 20.2042 44.5522 19.9467 45.0671 19.4309L46.1845 18.3143C47.2153 17.2836 47.2153 15.6066 46.1845 14.5768L32.9303 1.32252C31.9013 0.292702 30.2234 0.291763 29.1927 1.32252L28.0753 2.43992C27.0618 3.4535 27.0506 5.09008 28.0324 6.12422L4.73358 29.4231H31.4353L41.3829 19.4746C41.8918 19.9579 42.5431 20.2042 43.1988 20.2042ZM29.2897 3.65344L30.4063 2.53604C30.5873 2.35582 30.8242 2.2657 31.0611 2.2657C31.2988 2.2657 31.5365 2.35582 31.7167 2.53604L44.971 15.7904C45.3323 16.1517 45.3323 16.7396 44.971 17.1009L43.8536 18.2175C43.4915 18.5788 42.9036 18.5779 42.5431 18.2175L41.751 17.4253L30.0818 5.75607L29.2897 4.96392C28.9284 4.60263 28.9284 4.01474 29.2897 3.65344ZM22.5656 26.1551C22.3982 26.3224 22.1786 26.4065 21.9588 26.4065C21.7391 26.4065 21.5194 26.3224 21.3521 26.1551L17.7107 22.5137C17.3759 22.1789 17.3759 21.6357 17.7107 21.3002C18.0462 20.9654 18.5895 20.9654 18.9242 21.3002L22.5656 24.9416C22.9012 25.2771 22.9012 25.8195 22.5656 26.1551ZM23.1724 21.9069C23.005 22.0751 22.7853 22.1584 22.5656 22.1584C22.3458 22.1584 22.1262 22.0751 21.9588 21.9069L20.1386 20.0866C19.803 19.7511 19.803 19.2079 20.1386 18.8731C20.4741 18.5375 21.0165 18.5375 21.3521 18.8731L23.1724 20.6934C23.5079 21.029 23.5079 21.5722 23.1724 21.9069ZM27.4205 21.3002C27.2523 21.4684 27.0335 21.5516 26.8138 21.5516C26.594 21.5516 26.3744 21.4684 26.207 21.3002L22.5664 17.6596C22.2309 17.324 22.2309 16.7808 22.5664 16.4452C22.9012 16.1105 23.4444 16.1105 23.78 16.4452L27.4205 20.0866C27.7552 20.4222 27.7552 20.9654 27.4205 21.3002ZM28.0273 17.0528C27.8599 17.2202 27.6403 17.3035 27.4205 17.3035C27.2008 17.3035 26.982 17.2202 26.8138 17.0528L24.9935 15.2317C24.6579 14.8961 24.6579 14.3529 24.9935 14.0182C25.3282 13.6826 25.8714 13.6826 26.207 14.0182L28.0273 15.8385C28.3629 16.174 28.3629 16.7173 28.0273 17.0528ZM32.2754 16.4452C32.1081 16.6126 31.8884 16.6967 31.6687 16.6967C31.4489 16.6967 31.2293 16.6126 31.0619 16.4452L27.4205 12.8038C27.0858 12.4691 27.0858 11.9259 27.4205 11.5903C27.7561 11.2556 28.2993 11.2556 28.634 11.5903L32.2754 15.2317C32.611 15.5672 32.611 16.1097 32.2754 16.4452Z" fill="#7E65C3"/>
<path d="M2.48844 31.6683C-0.829399 34.9862 -0.829399 40.3844 2.48844 43.7022L3.70628 44.9201C5.3927 46.6065 7.60685 47.4501 9.82194 47.4501C12.0362 47.4501 14.252 46.6065 15.9376 44.9201L29.7188 31.1396H3.0171L2.48844 31.6683Z" fill="#7E65C3"/>
</svg>
