<svg width="26" height="26" viewBox="0 0 26 26" fill="none" xmlns="http://www.w3.org/2000/svg">
<path d="M13.0001 16.792C15.3942 16.792 17.3334 14.8528 17.3334 12.4587V6.50033C17.3334 4.10616 15.3942 2.16699 13.0001 2.16699C10.6059 2.16699 8.66675 4.10616 8.66675 6.50033L8.66675 12.4587C8.66675 14.8528 10.6059 16.792 13.0001 16.792Z" stroke="#030401" stroke-width="1.5" stroke-linecap="round" stroke-linejoin="round"/>
<path d="M4.7124 10.4541V12.2958C4.7124 16.8674 8.42824 20.5833 12.9999 20.5833C17.5716 20.5833 21.2874 16.8674 21.2874 12.2958V10.4541" stroke="#030401" stroke-width="1.5" stroke-linecap="round" stroke-linejoin="round"/>
<path d="M11.4941 6.96539C12.4691 6.60789 13.5308 6.60789 14.5058 6.96539" stroke="#030401" stroke-width="1.5" stroke-linecap="round" stroke-linejoin="round"/>
<path d="M12.1333 9.26219C12.7075 9.11052 13.3033 9.11052 13.8775 9.26219" stroke="#030401" stroke-width="1.5" stroke-linecap="round" stroke-linejoin="round"/>
<path d="M13 20.583V23.833" stroke="#030401" stroke-width="1.5" stroke-linecap="round" stroke-linejoin="round"/>
</svg>
