<svg width="43" height="43" viewBox="0 0 43 43" fill="none" xmlns="http://www.w3.org/2000/svg">
<path d="M6.89774 24.7608C6.57524 24.4383 6.31545 24.0352 6.14525 23.5604C5.97504 23.0856 5.86754 22.584 5.84066 22.0375C5.79587 21.1148 5.93025 20.2817 6.25274 19.5113C6.56628 18.7498 7.03212 18.0511 7.6592 17.424C8.57294 16.5102 9.7644 15.7488 11.2336 15.1575C12.7027 14.5663 14.3242 14.1273 16.0889 13.8496C17.8716 13.5719 19.6812 13.4286 21.5356 13.4196C23.39 13.4286 25.1995 13.5719 26.9643 13.8496C28.7201 14.1363 30.3326 14.5663 31.7749 15.1486C33.2262 15.7398 34.4176 16.5013 35.3493 17.4329C35.9584 18.0421 36.4332 18.7319 36.7557 19.4844C37.0872 20.2458 37.2484 21.0879 37.2216 22.0106C37.2126 23.1483 36.8632 24.0531 36.2003 24.716C35.9495 24.9669 35.6449 25.1639 35.3134 25.2804C34.973 25.4058 34.6057 25.4506 34.2116 25.3789L29.2039 24.5279C28.8187 24.4652 28.4962 24.3756 28.2185 24.2592C27.9497 24.1517 27.7168 24.0083 27.5466 23.8381C27.3316 23.6231 27.1793 23.3454 27.0987 23.014C27.0091 22.6915 26.9643 22.3062 26.9643 21.8762L26.9374 20.4877C26.9374 20.2906 26.8658 20.1294 26.7224 19.986C26.6508 19.9144 26.5791 19.8606 26.4895 19.8069C26.391 19.7621 26.3104 19.7352 26.2387 19.6994C25.7818 19.565 25.1189 19.4575 24.2589 19.3858C23.39 19.3231 22.4852 19.2783 21.5445 19.2694C20.586 19.2783 19.6812 19.3052 18.8033 19.3769C17.9433 19.4485 17.2894 19.565 16.8235 19.7083C16.7608 19.7352 16.6802 19.7621 16.5906 19.7979C16.4921 19.8427 16.4114 19.9054 16.3308 19.986C16.1785 20.1383 16.1158 20.3085 16.1158 20.5056L16.1069 21.8583C16.1069 22.3062 16.0621 22.6914 15.9635 23.005C15.8829 23.3364 15.7396 23.6052 15.5156 23.8292C15.3454 23.9994 15.1304 24.1427 14.8527 24.2592C14.575 24.3756 14.2525 24.4652 13.8762 24.5369L8.80586 25.3969C8.41169 25.4685 8.06232 25.4416 7.73982 25.3162C7.42628 25.1819 7.14857 25.0116 6.89774 24.7608Z" fill="white"/>
</svg>
