<svg width="48" height="48" viewBox="0 0 48 48" fill="none" xmlns="http://www.w3.org/2000/svg">
<g clip-path="url(#clip0_0_1080)">
<path d="M17.7767 25.2928L34.4594 19.2195C33.8306 18.576 33.0644 18.0834 32.2177 17.7783L20.9439 13.6743L16.838 24.9533L17.7767 25.2928Z" fill="#5757D8"/>
<path d="M18.0715 27.0106H18.0664L15.7836 27.8412C13.769 28.5744 12.2985 30.3265 11.9261 32.4378C11.5532 34.5488 12.3355 36.6986 13.9777 38.0767C15.6195 39.4549 17.8723 39.8526 19.8869 39.1194L31.1644 35.0154L27.0618 23.7397L18.0715 27.0106ZM17.1442 30.911C16.6706 30.911 16.2868 30.5272 16.2868 30.0536C16.2868 29.5805 16.6706 29.1966 17.1442 29.1966C17.6174 29.1966 18.0012 29.5805 18.0012 30.0536C18.0012 30.5272 17.6174 30.911 17.1442 30.911ZM24.7432 28.2873L21.7232 29.3867C21.6295 29.4215 21.5302 29.4395 21.4299 29.4391C21.0138 29.4395 20.6575 29.1406 20.585 28.7308C20.5128 28.321 20.7454 27.9181 21.1369 27.7764L24.1576 26.6773C24.4487 26.5579 24.7816 26.6074 25.0252 26.8062C25.2691 27.0055 25.3841 27.3219 25.3251 27.6306C25.2662 27.9397 25.0428 28.1917 24.7432 28.2873Z" fill="#5757D8"/>
<path d="M19.3332 13.0881L8.05756 8.98302C4.94274 7.85648 1.50306 9.45803 0.360038 12.567C0.119788 13.2233 -0.00216824 13.9169 2.91732e-05 14.6157C0.00332528 17.1383 1.58107 19.3903 3.95097 20.255L15.2299 24.362L19.3332 13.0881ZM2.57173 14.6241C2.09819 14.6241 1.71437 14.2403 1.71437 13.7671C1.71437 13.2936 2.09819 12.9098 2.57173 12.9098C3.04491 12.9098 3.42872 13.2936 3.42872 13.7671C3.42872 14.2403 3.04491 14.6241 2.57173 14.6241ZM7.98395 11.6899C7.82281 12.1348 7.33169 12.3652 6.88671 12.2044L6.00555 12.0524C5.74113 12.0532 5.47817 12.0946 5.22657 12.1751C4.78782 12.2868 4.33772 12.0382 4.19891 11.6075C4.06011 11.1764 4.28022 10.7116 4.70175 10.5465C4.91051 10.4802 5.12402 10.4293 5.34047 10.3949C5.56021 10.3586 5.78288 10.3396 6.00555 10.3381L7.11121 10.4849L7.46792 10.597C7.91107 10.7574 8.1418 11.2456 7.98395 11.6899ZM14.6198 15.0211L12.0411 14.0781C11.7455 13.9796 11.5265 13.7283 11.4694 13.4218C11.4126 13.1152 11.5265 12.8021 11.7668 12.6036C12.0074 12.4055 12.3366 12.3531 12.6267 12.4674L15.205 13.406C15.5009 13.5046 15.7196 13.7562 15.7767 14.0627C15.8335 14.3689 15.7199 14.6824 15.4793 14.8805C15.2387 15.079 14.9094 15.131 14.6198 15.0167V15.0211Z" fill="#5757D8"/>
<path d="M47.6398 22.6326C47.0956 21.1362 45.979 19.9177 44.5356 19.2449C43.0927 18.5722 41.4413 18.5008 39.9456 19.0461L36.1782 20.4176C36.1723 20.4176 36.1686 20.4253 36.1628 20.4272L28.6689 23.1538L32.7758 34.425L44.054 30.3199C47.163 29.1831 48.7664 25.7452 47.6398 22.6326ZM35.0802 24.4678L32.0591 25.5669C31.6141 25.7284 31.1223 25.4988 30.9608 25.0538C30.7993 24.6088 31.0289 24.117 31.4739 23.9555L34.4938 22.8531C34.9388 22.6912 35.4307 22.9205 35.5926 23.3655C35.7544 23.8104 35.5252 24.3026 35.0802 24.4645V24.4678ZM44.6671 22.3697C44.395 22.7564 43.861 22.8502 43.4736 22.5788C43.26 22.4305 43.0257 22.3147 42.7777 22.2356C42.6536 22.1964 42.5265 22.1664 42.3979 22.1459C42.2672 22.1243 42.1353 22.1126 42.0028 22.1115L41.1216 22.2693L38.0998 23.3673C37.6592 23.5141 37.182 23.2834 37.0231 22.8469C36.8645 22.4103 37.0824 21.9269 37.5146 21.7566L41.6241 20.4125L42.0028 20.3971C42.2254 20.3971 42.4474 20.4147 42.6671 20.4495C42.8836 20.4832 43.0971 20.5341 43.3058 20.6011C43.5113 20.6674 43.712 20.7483 43.9057 20.8436C44.0991 20.9402 44.2851 21.0512 44.462 21.1754C44.848 21.4486 44.94 21.9833 44.6671 22.3697Z" fill="#5757D8"/>
</g>
<defs>
<clipPath id="clip0_0_1080">
<rect width="48" height="48" fill="white"/>
</clipPath>
</defs>
</svg>
