<svg width="27" height="27" viewBox="0 0 27 27" fill="none" xmlns="http://www.w3.org/2000/svg">
<path d="M13.5223 3.27389C9.79859 3.27389 6.77236 6.30012 6.77236 10.0239V13.2751C6.77236 13.9613 6.47986 15.0076 6.13111 15.5926L4.83737 17.7413C4.03862 19.0688 4.58987 20.5425 6.05236 21.0375C10.9011 22.6575 16.1323 22.6575 20.981 21.0375C22.3423 20.5875 22.9385 18.9788 22.196 17.7413L20.9023 15.5926C20.5648 15.0076 20.2723 13.9613 20.2723 13.2751V10.0239C20.2723 6.31137 17.2348 3.27389 13.5223 3.27389Z" stroke="#5892EC" stroke-width="1.5" stroke-miterlimit="10" stroke-linecap="round"/>
<path d="M15.6037 3.59975C15.255 3.4985 14.895 3.41975 14.5237 3.37475C13.4437 3.23975 12.4087 3.3185 11.4412 3.59975C11.7675 2.76725 12.5775 2.18226 13.5225 2.18226C14.4675 2.18226 15.2775 2.76725 15.6037 3.59975Z" stroke="#5892EC" stroke-width="1.5" stroke-miterlimit="10" stroke-linecap="round" stroke-linejoin="round"/>
<path d="M16.8974 21.4422C16.8974 23.2985 15.3786 24.8172 13.5224 24.8172C12.5999 24.8172 11.7449 24.4347 11.1374 23.8272C10.5299 23.2197 10.1474 22.3647 10.1474 21.4422" stroke="#5892EC" stroke-width="1.5" stroke-miterlimit="10"/>
</svg>
