<svg width="34" height="34" viewBox="0 0 34 34" fill="none" xmlns="http://www.w3.org/2000/svg">
<path d="M9.11276 19.9555L8.12652 23.6373L4.52182 23.7135C3.44454 21.7154 2.8335 19.4293 2.8335 17C2.8335 14.6508 3.40481 12.4355 4.41751 10.4849H4.41828L7.62748 11.0732L9.0333 14.2632C8.73906 15.121 8.57869 16.0418 8.57869 17C8.5788 18.0399 8.76717 19.0363 9.11276 19.9555Z" fill="#FBBB00"/>
<path d="M30.9192 14.3535C31.0819 15.2105 31.1667 16.0955 31.1667 17C31.1667 18.0143 31.0601 19.0036 30.857 19.9579C30.1673 23.2054 28.3653 26.041 25.8691 28.0477L25.8683 28.0469L21.8262 27.8407L21.2541 24.2694C22.9105 23.298 24.2049 21.7778 24.8868 19.9579H17.3115V14.3535H24.9973H30.9192Z" fill="#518EF8"/>
<path d="M25.8685 28.0469L25.8693 28.0477C23.4415 29.9991 20.3575 31.1667 17.0003 31.1667C11.6053 31.1667 6.91476 28.1512 4.52197 23.7136L9.11291 19.9556C10.3093 23.1485 13.3894 25.4214 17.0003 25.4214C18.5524 25.4214 20.0065 25.0018 21.2542 24.2694L25.8685 28.0469Z" fill="#28B446"/>
<path d="M26.0427 6.09493L21.4533 9.8522C20.162 9.04503 18.6355 8.57875 17.0001 8.57875C13.3075 8.57875 10.1698 10.9559 9.03333 14.2633L4.41826 10.485H4.41748C6.77523 5.93926 11.5249 2.8335 17.0001 2.8335C20.4375 2.8335 23.5892 4.05792 26.0427 6.09493Z" fill="#F14336"/>
</svg>
