<svg width="25" height="24" viewBox="0 0 25 24" fill="none" xmlns="http://www.w3.org/2000/svg">
<path d="M8.6 19H8.09412C4.04706 19 2.02353 18 2.02353 13V8C2.02353 4 4.04706 2 8.09412 2H16.1882C20.2353 2 22.2588 4 22.2588 8V13C22.2588 17 20.2353 19 16.1882 19H15.6824C15.3687 19 15.0652 19.15 14.8729 19.4L13.3553 21.4C12.6875 22.28 11.5948 22.28 10.9271 21.4L9.40941 19.4C9.24753 19.18 8.87318 19 8.6 19Z" fill="#5892EC"/>
<path fill-rule="evenodd" clip-rule="evenodd" d="M16.1847 11H16.1937H16.1847Z" fill="#5892EC"/>
<path d="M16.1847 11H16.1937" stroke="white" stroke-width="2" stroke-linecap="round" stroke-linejoin="round"/>
<path d="M12.1366 11H12.1457" stroke="white" stroke-width="2" stroke-linecap="round" stroke-linejoin="round"/>
<path d="M8.08857 11H8.09765" stroke="white" stroke-width="2" stroke-linecap="round" stroke-linejoin="round"/>
</svg>
