<svg width="12" height="12" viewBox="0 0 12 12" fill="none" xmlns="http://www.w3.org/2000/svg">
<path d="M6.00001 9.1376L3.92501 10.3876C3.83334 10.4459 3.73751 10.4709 3.63751 10.4626C3.53751 10.4543 3.45001 10.4209 3.37501 10.3626C3.30001 10.3043 3.24167 10.2313 3.20001 10.1438C3.15834 10.0563 3.15001 9.95843 3.17501 9.8501L3.72501 7.4876L1.88751 5.9001C1.80417 5.8251 1.75209 5.73968 1.73126 5.64385C1.71042 5.54801 1.71667 5.45426 1.75001 5.3626C1.78334 5.27093 1.83334 5.19593 1.90001 5.1376C1.96667 5.07926 2.05834 5.04176 2.17501 5.0251L4.60001 4.8126L5.53751 2.5876C5.57917 2.4876 5.64376 2.4126 5.73126 2.3626C5.81876 2.3126 5.90834 2.2876 6.00001 2.2876C6.09167 2.2876 6.18126 2.3126 6.26876 2.3626C6.35626 2.4126 6.42084 2.4876 6.46251 2.5876L7.40001 4.8126L9.82501 5.0251C9.94167 5.04176 10.0333 5.07926 10.1 5.1376C10.1667 5.19593 10.2167 5.27093 10.25 5.3626C10.2833 5.45426 10.2896 5.54801 10.2688 5.64385C10.2479 5.73968 10.1958 5.8251 10.1125 5.9001L8.27501 7.4876L8.82501 9.8501C8.85001 9.95843 8.84167 10.0563 8.80001 10.1438C8.75834 10.2313 8.70001 10.3043 8.62501 10.3626C8.55001 10.4209 8.46251 10.4543 8.36251 10.4626C8.26251 10.4709 8.16667 10.4459 8.07501 10.3876L6.00001 9.1376Z" fill="#F4BA0C"/>
</svg>
