<svg width="64" height="64" viewBox="0 0 64 64" fill="none" xmlns="http://www.w3.org/2000/svg">
<path d="M32 0C23.6468 0 16.875 6.77175 16.875 15.125C16.875 23.4782 16.875 26.25 16.875 26.25H24.375C24.375 26.25 24.375 19.3361 24.375 15.125C24.375 10.9139 27.7889 7.5 32 7.5C36.2111 7.5 39.625 10.9139 39.625 15.125C39.625 19.3361 39.625 26.25 39.625 26.25H47.125C47.125 26.25 47.125 23.4782 47.125 15.125C47.125 6.77175 40.3532 0 32 0Z" fill="#5892EC"/>
<path d="M9.375 30V64H54.625V30H9.375ZM33.875 47.433V53.5625H30.125V47.433C29.0052 46.7836 28.25 45.5725 28.25 44.1875C28.25 42.1198 29.9323 40.4375 32 40.4375C34.0677 40.4375 35.75 42.1198 35.75 44.1875C35.75 45.5725 34.9948 46.7836 33.875 47.433Z" fill="#5892EC"/>
</svg>
