<svg width="120" height="120" viewBox="0 0 120 120" fill="none" xmlns="http://www.w3.org/2000/svg">
<circle cx="60" cy="60" r="60" fill="#EEF4FD"/>
<g clip-path="url(#clip0_562_15761)">
<path d="M59.9998 38.4185C48.0998 38.4185 38.4185 48.0998 38.4185 59.9998C38.4185 71.8998 48.0998 81.5812 59.9998 81.5812C71.8998 81.5812 81.5812 71.8998 81.5812 59.9998C81.5812 48.0998 71.8998 38.4185 59.9998 38.4185ZM70.1092 55.2638L57.4798 67.8932C56.6088 68.7645 55.1941 68.7651 54.3226 67.8932L49.8905 63.461C49.0186 62.5891 49.0186 61.1756 49.8905 60.3037C50.7623 59.4318 52.176 59.4318 53.0477 60.3037L55.9012 63.1572L66.9518 52.1066C67.8236 51.2348 69.2372 51.2348 70.1091 52.1066C70.9811 52.9783 70.9811 54.392 70.1092 55.2638Z" fill="#5892EC"/>
<path d="M60 28C42.3136 28 28 42.312 28 60C28 77.6864 42.312 92 60 92C77.6864 92 92 77.688 92 60C92 42.3136 77.688 28 60 28ZM60 86.0465C45.638 86.0465 33.9535 74.362 33.9535 60C33.9535 45.638 45.638 33.9535 60 33.9535C74.362 33.9535 86.0465 45.638 86.0465 60C86.0465 74.362 74.362 86.0465 60 86.0465Z" fill="#5892EC"/>
</g>
<defs>
<clipPath id="clip0_562_15761">
<rect width="64" height="64" fill="white" transform="translate(28 28)"/>
</clipPath>
</defs>
</svg>
