<svg width="48" height="48" viewBox="0 0 48 48" fill="none" xmlns="http://www.w3.org/2000/svg">
<path d="M36.7999 5.59999H32.7999V4.78878C32.7999 3.91277 32.0823 3.20002 31.1999 3.20002H28.8V2.38882C28.8 1.07198 27.7231 0 26.4 0H21.6C20.2767 0 19.2 1.07198 19.2 2.38882V3.20002H16.8C15.9176 3.20002 15.2 3.91286 15.2 4.78878V5.59999H11.2C8.99442 5.59999 7.20007 7.39434 7.20007 9.59996V43.9999C7.20007 46.2056 8.99442 47.9999 11.2 47.9999H36.8C39.0056 47.9999 40.8 46.2056 40.8 43.9999V9.59996C40.8 7.39443 39.0055 5.59999 36.7999 5.59999ZM15.1999 40.8C14.3159 40.8 13.5999 40.084 13.5999 39.2C13.5999 38.316 14.3159 37.6 15.1999 37.6C16.084 37.6 16.7999 38.316 16.7999 39.2C16.7999 40.0839 16.084 40.8 15.1999 40.8ZM15.1999 33.6C14.3159 33.6 13.5999 32.884 13.5999 32C13.5999 31.116 14.3159 30.4 15.1999 30.4C16.084 30.4 16.7999 31.116 16.7999 32C16.7999 32.8839 16.084 33.6 15.1999 33.6ZM15.1999 26.4C14.3159 26.4 13.5999 25.684 13.5999 24.8C13.5999 23.916 14.3159 23.2 15.1999 23.2C16.084 23.2 16.7999 23.916 16.7999 24.8C16.7999 25.6839 16.084 26.4 15.1999 26.4ZM15.1999 19.2C14.3159 19.2 13.5999 18.484 13.5999 17.6C13.5999 16.716 14.3159 16 15.1999 16C16.084 16 16.7999 16.716 16.7999 17.6C16.7999 18.4839 16.084 19.2 15.1999 19.2ZM16.7999 6.40004V4.80003H20C20.4415 4.80003 20.7999 4.44242 20.7999 4.00007V2.38882C20.7999 1.94723 21.1511 1.60001 21.5999 1.60001H26.3999C26.8487 1.60001 27.1999 1.94723 27.1999 2.38882V3.99998C27.1999 4.44242 27.5582 4.79993 27.9998 4.79993L31.1998 4.78878L31.1878 10.4H16.7999V6.40004ZM32.7999 40H19.2C18.7584 40 18.4 39.6423 18.4 39.2C18.4 38.7576 18.7584 38.4 19.2 38.4H32.8C33.2416 38.4 33.6 38.7576 33.6 39.2C33.6 39.6423 33.2415 40 32.7999 40ZM32.7999 32.8H19.2C18.7584 32.8 18.4 32.4423 18.4 32C18.4 31.5576 18.7584 31.2 19.2 31.2H32.8C33.2416 31.2 33.6 31.5577 33.6 32C33.6 32.4423 33.2415 32.8 32.7999 32.8ZM32.7999 25.6H19.2C18.7584 25.6 18.4 25.2423 18.4 24.8C18.4 24.3577 18.7584 24 19.2 24H32.8C33.2416 24 33.6 24.3577 33.6 24.8C33.6 25.2423 33.2415 25.6 32.7999 25.6ZM32.7999 18.4H19.2C18.7584 18.4 18.4 18.0424 18.4 17.6C18.4 17.1576 18.7584 16.8001 19.2 16.8001H32.8C33.2416 16.8001 33.6 17.1577 33.6 17.6C33.6 18.0424 33.2415 18.4 32.7999 18.4Z" fill="#50C8E5"/>
</svg>
