<svg width="20" height="20" viewBox="0 0 20 20" fill="none" xmlns="http://www.w3.org/2000/svg">
<path d="M13.4672 9.15774L13.4885 9.17908H13.4583H4.16667C3.9337 9.17908 3.73902 9.25774 3.58176 9.415C3.42449 9.57226 3.34583 9.76695 3.34583 9.99991C3.34583 10.2329 3.42449 10.4276 3.58176 10.5848C3.73902 10.7421 3.9337 10.8207 4.16667 10.8207L13.4583 10.8207H13.4885L13.4672 10.8421L11.0922 13.2171C10.9278 13.3815 10.8494 13.5726 10.8562 13.7912C10.8631 14.0103 10.9417 14.2018 11.0924 14.3663C11.2568 14.5306 11.4517 14.616 11.6775 14.6228C11.9031 14.6297 12.0977 14.5512 12.262 14.3869L16.0745 10.5744C16.1567 10.4922 16.2146 10.4035 16.2486 10.3082C16.2829 10.2124 16.3 10.1097 16.3 9.99991C16.3 9.89012 16.2829 9.78739 16.2486 9.69161C16.2146 9.59637 16.1567 9.50762 16.0745 9.42541L12.262 5.61292C12.0977 5.44861 11.9031 5.37015 11.6775 5.37699C11.4517 5.38383 11.2568 5.4692 11.0924 5.63355C10.9417 5.79801 10.8631 5.98954 10.8562 6.20863C10.8494 6.42718 10.9278 6.61835 11.0922 6.78274L13.4672 9.15774Z" fill="#030401" stroke="#030401" stroke-width="0.025"/>
</svg>
