<svg width="18" height="18" viewBox="0 0 18 18" fill="none" xmlns="http://www.w3.org/2000/svg">
<path d="M5.06997 16.4996H12.9299C14.9998 16.4996 15.8248 15.2322 15.9223 13.6872L16.3123 7.49225C16.4173 5.87227 15.1273 4.49979 13.4999 4.49979C13.0424 4.49979 12.6224 4.23729 12.4124 3.8323L11.8724 2.74481C11.5274 2.06232 10.6274 1.49983 9.86241 1.49983L8.14493 1.49983C7.37244 1.49983 6.47245 2.06232 6.12746 2.74481L5.58746 3.8323C5.37747 4.23729 4.95747 4.49979 4.49998 4.49979C2.8725 4.49979 1.58252 5.87227 1.68751 7.49225L2.07751 13.6872C2.16751 15.2322 3 16.4996 5.06997 16.4996Z" stroke="#030401" stroke-width="1.5" stroke-linecap="round" stroke-linejoin="round"/>
<path d="M7.87487 6.00034H10.1248" stroke="#030401" stroke-width="1.5" stroke-linecap="round" stroke-linejoin="round"/>
<path d="M8.99986 13.5C10.3423 13.5 11.4373 12.405 11.4373 11.0625C11.4373 9.72003 10.3423 8.62504 8.99986 8.62504C7.65738 8.62504 6.56239 9.72003 6.56239 11.0625C6.56239 12.405 7.65738 13.5 8.99986 13.5Z" stroke="#030401" stroke-width="1.5" stroke-linecap="round" stroke-linejoin="round"/>
</svg>
