<svg width="34" height="34" viewBox="0 0 34 34" fill="none" xmlns="http://www.w3.org/2000/svg">
<g clip-path="url(#clip0_0_159)">
<path d="M4.85714 16.6442L5.64218 17.4293C5.88041 17.6593 6.25909 17.6561 6.49328 17.4219C6.72748 17.1877 6.73077 16.809 6.50068 16.5708L5.71564 15.7857C5.24146 15.3117 4.47282 15.3117 3.99864 15.7857L3.64286 16.1415L2.85782 15.3565C2.61959 15.1264 2.24091 15.1297 2.00672 15.3639C1.77252 15.5981 1.76923 15.9767 1.99932 16.215L2.78436 17C3.25853 17.474 4.02718 17.474 4.50136 17L4.85714 16.6442Z" fill="#ED5A87"/>
<path d="M7.86371 20.4566C7.81431 20.3033 7.70601 20.1759 7.56265 20.1024C7.41929 20.029 7.25261 20.0155 7.09932 20.065L6.04289 20.4056C5.40495 20.6114 5.05438 21.2951 5.25968 21.9332L5.41389 22.4128L4.35685 22.7528C4.0721 22.8444 3.89646 23.1297 3.94293 23.4252C3.9894 23.7206 4.24414 23.9382 4.54325 23.938C4.60657 23.9381 4.6695 23.928 4.72964 23.9082L5.78607 23.5682C6.09271 23.4694 6.34753 23.2528 6.49442 22.9661C6.64131 22.6794 6.66824 22.346 6.56928 22.0394L6.41507 21.5604L7.4721 21.2204C7.79107 21.1175 7.96636 20.7756 7.86371 20.4566Z" fill="#ED5A87"/>
<path d="M7.85704 13.1512L7.48 12.1063C7.25177 11.4764 6.55653 11.1504 5.92632 11.3777L5.45275 11.5484L5.07632 10.5035C4.96248 10.1879 4.61441 10.0244 4.29888 10.1383C3.98334 10.2521 3.81984 10.6002 3.93368 10.9157L4.31072 11.9606C4.53895 12.5908 5.23462 12.9169 5.865 12.6892L6.33797 12.5186L6.7144 13.5629C6.78793 13.767 6.96477 13.9163 7.1783 13.9547C7.39184 13.9931 7.60962 13.9146 7.74962 13.7489C7.88963 13.5832 7.93057 13.3553 7.85704 13.1512Z" fill="#ED5A87"/>
<path d="M31.2156 17L32.0007 16.215C32.2308 15.9767 32.2275 15.5981 31.9933 15.3639C31.7591 15.1297 31.3804 15.1264 31.1422 15.3565L30.3571 16.1415L30.0014 15.7857C29.5272 15.3117 28.7585 15.3117 28.2844 15.7857L27.4993 16.5708C27.3415 16.7232 27.2782 16.9489 27.3338 17.1612C27.3893 17.3735 27.5551 17.5393 27.7674 17.5948C27.9796 17.6504 28.2054 17.5871 28.3578 17.4293L29.1429 16.6442L29.4986 17C29.9728 17.474 30.7415 17.474 31.2156 17Z" fill="#ED5A87"/>
<path d="M27.5036 22.9663C27.6496 23.2534 27.9046 23.4701 28.2115 23.568L29.2679 23.908C29.3281 23.9278 29.391 23.9379 29.4543 23.9377C29.7534 23.938 30.0082 23.7204 30.0546 23.4249C30.1011 23.1294 29.9255 22.8441 29.6407 22.7526L28.5837 22.412L28.7379 21.9335C28.9436 21.2953 28.5929 20.6111 27.9547 20.4054L26.8983 20.0648C26.5868 19.9834 26.2661 20.1592 26.1671 20.4655C26.0681 20.7718 26.2253 21.1021 26.5255 21.2183L27.5825 21.5583L27.4283 22.0374C27.3279 22.3446 27.355 22.6793 27.5036 22.9663Z" fill="#ED5A87"/>
<path d="M26.5085 13.9285C26.8237 14.0423 27.1715 13.8793 27.2856 13.5642L27.662 12.5199L28.135 12.6905C28.7654 12.9182 29.4611 12.5921 29.6893 11.9619L30.0663 10.9177C30.1802 10.6021 30.0167 10.2541 29.7011 10.1402C29.3856 10.0264 29.0375 10.1899 28.9237 10.5054L28.5473 11.5503L28.0737 11.3791C27.4434 11.1535 26.7492 11.4789 26.5194 12.1077L26.143 13.1526C26.03 13.4677 26.1935 13.8149 26.5085 13.9285Z" fill="#ED5A87"/>
<path d="M12.0056 7.54436C13.1676 7.10894 13.9446 6.00674 13.9643 4.76607V0.607143C13.9643 0.271827 14.2361 0 14.5714 0H19.4286C19.7639 0 20.0357 0.271827 20.0357 0.607143V4.76607C20.0554 6.00674 20.8324 7.10894 21.9944 7.54436C23.5455 8.16381 24.4767 9.75879 24.2535 11.4141C24.0304 13.0694 22.7101 14.3609 21.0503 14.5475C19.3905 14.7341 17.8164 13.768 17.2313 12.2036C17.0819 11.7909 17.0037 11.3559 17 10.917C16.9908 10.5884 16.7216 10.3268 16.3929 10.3269H16.3892C16.2282 10.3279 16.0741 10.3927 15.961 10.5073C15.8478 10.6218 15.7847 10.7767 15.7857 10.9377C15.7925 11.6741 15.9662 12.3995 16.2939 13.059C15.3857 14.3125 13.7837 14.8538 12.3014 14.4083C10.819 13.9627 9.78103 12.6278 9.7144 11.0814C9.64777 9.53498 10.5671 8.11577 12.0056 7.54436ZM21.9944 26.4556C20.8323 26.8909 20.0552 27.9932 20.0357 29.2339V33.3929C20.0357 33.7282 19.7639 34 19.4286 34H14.5714C14.2361 34 13.9643 33.7282 13.9643 33.3929V29.2339C13.9448 27.9932 13.1677 26.8909 12.0056 26.4556C10.4904 25.8534 9.55986 24.3175 9.7276 22.6956C9.89534 21.0737 11.1205 19.7608 12.7269 19.4814C12.9318 19.4468 13.1391 19.4291 13.3468 19.4286C14.515 19.4277 15.6123 19.9887 16.2957 20.9361C15.9669 21.5967 15.7925 22.3233 15.7857 23.0611C15.7847 23.2221 15.8478 23.3769 15.961 23.4915C16.0741 23.606 16.2282 23.6709 16.3892 23.6719H16.3929C16.7246 23.6719 16.995 23.4056 17 23.0739C17.0018 22.6385 17.0803 22.2069 17.2319 21.7989C17.8165 20.2339 19.3905 19.2672 21.0506 19.4534C22.7108 19.6397 24.0314 20.9312 24.2547 22.5868C24.4779 24.2423 23.5465 25.8376 21.995 26.4569L21.9944 26.4556ZM23.8304 19.4128C23.1639 18.8261 22.3478 18.4358 21.4728 18.2853C19.8089 17.9989 18.1155 18.5965 17 19.8639C15.8848 18.596 14.1911 17.9983 12.5272 18.2853C11.6522 18.4358 10.8361 18.8261 10.1696 19.4128C9.51588 18.7768 9.1349 17.9116 9.10714 17C9.13536 16.089 9.51631 15.2246 10.1696 14.589C10.8361 15.1757 11.6522 15.566 12.5272 15.7165C14.1915 16.0031 15.8852 15.4047 17 14.1361C17.9214 15.1869 19.252 15.7883 20.6495 15.7857C20.9254 15.7853 21.2007 15.7624 21.4728 15.7171C22.3478 15.5666 23.1639 15.1763 23.8304 14.5896C24.4835 15.225 24.8645 16.0892 24.8929 17C24.8646 17.911 24.4837 18.7754 23.8304 19.411V19.4128Z" fill="#ED5A87"/>
</g>
<defs>
<clipPath id="clip0_0_159">
<rect width="34" height="34" fill="white"/>
</clipPath>
</defs>
</svg>
