<svg width="48" height="48" viewBox="0 0 48 48" fill="none" xmlns="http://www.w3.org/2000/svg">
<path d="M47.4135 22.5856L39.0617 14.2337C30.7578 5.92795 17.2421 5.92795 8.93828 14.2337L0.586464 22.5856C-0.195488 23.3675 -0.195488 24.6315 0.586464 25.4135L8.93828 33.7653C13.0902 37.9172 18.5441 39.9951 23.9999 39.9951C29.4558 39.9951 34.9097 37.9172 39.0616 33.7653L47.4134 25.4135C48.1954 24.6315 48.1954 23.3675 47.4135 22.5856ZM23.9999 33.9993C18.486 33.9993 14.0001 29.5134 14.0001 23.9995C14.0001 18.4856 18.486 13.9996 23.9999 13.9996C29.5138 13.9996 33.9997 18.4856 33.9997 23.9995C33.9997 29.5134 29.5138 33.9993 23.9999 33.9993Z" fill="#E75757"/>
<path d="M23.9999 17.9995C20.692 17.9995 18.0001 20.6915 18.0001 23.9994C18.0001 27.3073 20.692 29.9993 23.9999 29.9993C27.3078 29.9993 29.9998 27.3073 29.9998 23.9994C29.9998 20.6915 27.3079 17.9995 23.9999 17.9995Z" fill="#E75757"/>
</svg>
