<svg width="48" height="48" viewBox="0 0 48 48" fill="none" xmlns="http://www.w3.org/2000/svg">
<g clip-path="url(#clip0_0_83)">
<path d="M33.529 41.4202C33.2206 39.7317 32.6386 38.1048 31.8061 36.6037C31.7439 36.5001 31.6841 36.393 31.6186 36.2939C31.559 36.2034 31.4958 36.1228 31.4343 36.0375C31.3451 35.9139 31.2556 35.7909 31.1605 35.6763C31.1373 35.6482 31.1128 35.6237 31.0893 35.5963C31.0766 35.5987 31.0638 35.5993 31.0511 35.6015C30.9458 35.619 30.8375 35.6321 30.7283 35.6452C30.4306 35.6855 30.1306 35.7067 29.8303 35.7088C29.5428 35.7088 29.2744 35.6993 29.0225 35.681C29.002 35.6795 28.9849 35.6759 28.9646 35.6743C28.7356 35.6559 28.517 35.632 28.3138 35.5988L28.2988 35.5955C27.1749 35.4195 26.1361 34.8907 25.3325 34.0854C24.3865 34.7422 23.2866 35.1426 22.1399 35.2481C22.1233 35.2501 22.1087 35.2533 22.092 35.2553C21.1165 36.2123 20.5961 37.5404 20.6619 38.9053C20.6619 41.0027 21.8995 42.0509 23.333 43.2637C24.6928 44.4152 26.2153 45.7034 26.5224 47.9925H34.2435C34.1974 45.7886 33.9595 43.5928 33.5326 41.43L33.529 41.4202Z" fill="#ED5A87"/>
<path d="M20.8591 33.6168C21.1556 33.6168 21.4208 33.5975 21.6772 33.5739C21.8754 33.5555 22.0561 33.5281 22.2316 33.4985C22.3038 33.4863 22.38 33.4761 22.4484 33.4623C22.6238 33.4271 22.7848 33.3864 22.9363 33.3428C22.9871 33.3281 23.0396 33.3141 23.0878 33.2988C23.2362 33.2516 23.3731 33.202 23.4983 33.1498C23.5344 33.1348 23.5703 33.1198 23.6044 33.1044C23.7254 33.0505 23.8375 32.996 23.9356 32.9416C23.9602 32.9277 23.9833 32.9142 24.0065 32.9005C24.1009 32.8454 24.1882 32.791 24.2604 32.74C24.2756 32.7291 24.2883 32.7192 24.3025 32.7086C24.372 32.6575 24.4358 32.608 24.4839 32.5661L24.4988 32.5522C24.5574 32.5014 24.6122 32.4463 24.6625 32.3873C24.7161 32.3289 24.7774 32.2782 24.8448 32.2364C24.8749 32.2078 24.9069 32.1812 24.9407 32.157C25.0398 32.1064 25.1477 32.0758 25.2584 32.0665C25.2689 32.0655 25.2779 32.0587 25.2884 32.058H25.2885L25.29 32.0576L25.2921 32.0579C25.3089 32.0569 25.3256 32.0563 25.3427 32.0563C25.4475 32.0761 25.5524 32.0959 25.6571 32.1155C25.7669 32.1555 25.8668 32.2184 25.9502 32.3002C27.2058 33.5554 27.8242 33.9946 29.83 33.9946C30.0529 33.9945 30.2756 33.9807 30.4968 33.9528C30.513 33.9509 30.5278 33.9473 30.5439 33.9453C30.7534 33.9174 30.9611 33.8775 31.1659 33.8256L31.199 33.8166C31.9551 33.6184 32.6534 33.2436 33.2364 32.7231L33.2445 32.716C33.6408 32.3627 33.9833 31.9534 34.2614 31.5012L34.2665 31.4928C34.3256 31.3955 34.3696 31.3154 34.3997 31.2575L34.4112 31.2348C34.429 31.1999 34.4412 31.1745 34.4444 31.1676L34.4487 31.1585C34.477 31.0938 34.5131 31.033 34.5563 30.9771C34.5714 30.9575 34.5913 30.9427 34.6079 30.9246C34.6613 30.8554 34.7306 30.7999 34.81 30.7631C34.8324 30.7501 34.8523 30.7333 34.8759 30.7225C34.9396 30.693 35.0068 30.6715 35.0759 30.6585C35.1044 30.6553 35.1331 30.6536 35.1618 30.6533C35.4128 30.627 35.6623 30.7158 35.8403 30.8949C37.4113 32.4656 38.3306 32.5354 40.0988 32.5354C41.7706 32.6066 43.2337 31.4215 43.5113 29.7715C43.5113 28.6653 42.9564 28.4025 42.951 28.4008C42.5564 28.263 42.3188 27.8606 42.3887 27.4485C42.4585 27.0364 42.8155 26.7348 43.2334 26.7347C43.4206 26.732 43.607 26.7084 43.789 26.6643C43.8349 26.654 43.8803 26.6398 43.9259 26.6271C44.0921 26.5806 44.2543 26.5204 44.4108 26.4474C46.356 25.5398 47.9998 22.6092 47.9998 20.3203C47.9998 17.9204 45.5397 17.0158 45.4351 16.9786C45.1579 16.8802 44.9503 16.6468 44.8851 16.36C44.8199 16.0732 44.906 15.7731 45.1133 15.5644C45.7822 14.7241 46.0904 13.6527 45.9702 12.5854C45.9702 10.2583 43.1097 9.16629 43.0808 9.15542C42.7448 9.0304 42.5217 8.71015 42.5205 8.35167C42.5205 6.59403 41.7444 3.26984 38.8077 3.26984C38.3022 3.21933 37.7979 3.37687 37.4111 3.70621C37.1727 3.9764 36.7935 4.07359 36.4546 3.95138C36.1209 3.83198 35.8962 3.51801 35.8911 3.16356C35.8911 2.22973 34.1066 0.56159 30.5511 0.56159C29.3326 0.500484 28.1459 0.961965 27.2888 1.8302C27.1063 2.05147 26.8255 2.16731 26.54 2.13919C26.2545 2.11108 26.0018 1.94266 25.8659 1.69008C25.8323 1.63188 24.8738 0.00732422 21.7475 0.00732422C20.086 0.00732422 18.3329 1.73029 17.7974 2.3943C17.5293 2.72551 17.0592 2.81052 16.6921 2.5943C15.7252 2.04322 14.6451 1.72035 13.5344 1.65044C11.6063 1.53825 9.9215 2.94051 9.68186 4.85701C9.67155 5.51324 9.80819 6.16338 10.0819 6.75991C10.2247 7.02561 10.2178 7.34679 10.0639 7.60621C9.90988 7.86563 9.63125 8.02543 9.32956 8.0273C6.95392 8.0273 5.40706 8.51428 4.31465 9.60631C1.33151 12.5903 3.03601 14.7438 3.11005 14.8342C3.32018 15.0903 3.36385 15.4446 3.22224 15.744C3.08063 16.0434 2.77903 16.2344 2.44773 16.2345C0.971999 16.2345 0.529355 16.7437 0.324762 17.1266C0.0638432 17.7964 -0.0422489 18.5166 0.0147334 19.2332C-0.124348 20.6713 0.761126 22.0107 2.13882 22.446C3.4138 22.6102 4.69478 22.1902 5.62505 21.3031C5.95964 20.9685 6.50209 20.9685 6.83677 21.3031C7.17145 21.6376 7.17135 22.1801 6.83677 22.5148C5.71381 23.6099 4.20068 24.2122 2.63226 24.1888C2.41418 24.1888 2.23592 24.1774 2.09777 24.1648C1.88681 24.3535 1.76834 24.6246 1.77322 24.9077C1.77322 28.3858 5.75345 28.5845 5.9229 28.5916C7.20388 28.6578 8.48307 28.4307 9.66292 27.9276C9.90697 27.7918 10.2016 27.7826 10.4536 27.903C10.7057 28.0233 10.8837 28.2583 10.9315 28.5334C10.9738 28.7824 11.4064 30.9685 13.5089 30.9685C14.6518 30.9915 15.782 30.7254 16.7947 30.1951C16.7526 28.5272 17.5929 26.9606 19.0057 26.073C19.1048 25.5595 19.2665 25.0601 19.4871 24.586C17.3191 23.4968 16.0061 21.2228 16.1468 18.8007C16.1468 18.3275 16.5304 17.9438 17.0037 17.9438C17.4769 17.9438 17.8606 18.3274 17.8606 18.8007C17.8606 21.6203 19.4945 22.713 20.3574 23.0935C21.2271 21.725 22.6994 20.8553 24.3178 20.7542C24.8234 20.7566 25.3278 20.8044 25.8249 20.8971C26.41 19.1991 28.1599 16.3766 31.1816 16.3766C31.3719 16.3766 31.5489 16.3873 31.724 16.3994L31.7309 16.398C32.4233 16.398 34.0534 14.7997 34.0534 13.3424C34.0534 12.8692 34.437 12.4855 34.9103 12.4855C35.3836 12.4855 35.7672 12.8691 35.7672 13.3424C35.6728 14.7484 35.0384 16.0635 33.9967 17.0124C34.8126 17.4292 35.4363 18.1448 35.7375 19.01C35.8608 19.4641 35.5948 19.9327 35.1417 20.0597C34.6886 20.1866 34.2179 19.9244 34.0873 19.4723C34.0597 19.3891 33.5902 18.0903 31.1816 18.0903C29.1079 18.0903 27.8754 20.2648 27.4656 21.3701C28.0226 21.5925 28.5422 21.8988 29.0064 22.2785C29.3543 22.5983 29.3777 23.1395 29.0586 23.4881C28.7394 23.8366 28.1983 23.861 27.8491 23.5425C26.8314 22.7874 25.5837 22.4078 24.3178 22.4681C22.7537 22.4681 21.5252 24.1466 20.9763 25.4413C21.3135 25.3939 21.6535 25.3689 21.9941 25.3663C22.4673 25.3663 22.851 25.7499 22.851 26.2232C22.851 26.6964 22.4674 27.0801 21.9941 27.0801C19.559 27.0801 18.4732 28.1939 18.4732 30.6909L18.4712 30.7012C18.4712 30.7061 18.4731 30.7107 18.4729 30.7156C18.465 31.5561 18.7458 32.3739 19.2683 33.0323C19.6933 33.441 20.2703 33.6532 20.8591 33.6168ZM36.2188 24.0349C36.4817 22.4733 37.3962 21.0972 38.7341 20.2501C38.0207 19.3163 37.6301 18.176 37.6209 17.0009C37.5906 15.5835 38.1864 14.2246 39.2495 13.2865C38.7897 12.7835 38.503 12.1466 38.4313 11.4689C38.4215 10.9958 38.7966 10.6042 39.2697 10.5937C39.7321 10.5934 40.115 10.9527 40.1441 11.4141C40.1525 11.5129 40.3382 13.0797 43.5578 13.0797C44.031 13.0797 44.4147 13.4633 44.4147 13.9366C44.4147 14.4098 44.0311 14.7935 43.5578 14.7935C42.5878 14.8193 41.6222 14.6528 40.7169 14.3033C39.8291 14.9104 39.3088 15.9256 39.3345 17.0009C39.3531 17.9235 39.7023 18.8087 40.3186 19.4956C41.3663 19.1667 42.4598 19.0077 43.5578 19.0247C44.031 19.0247 44.4147 19.4083 44.4147 19.8816C44.4147 20.3548 44.0311 20.7385 43.5578 20.7385C38.2952 20.7385 37.9287 24.153 37.9258 24.1873C37.8863 24.6289 37.5165 24.9676 37.0731 24.968C37.0476 24.968 37.022 24.9668 36.9962 24.9646C36.5248 24.9226 36.1768 24.5063 36.2188 24.0349ZM22.9308 17.7927C22.7881 17.9696 22.5808 18.0823 22.3549 18.1063C22.1289 18.1306 21.9026 18.0641 21.7257 17.9213C21.5489 17.7786 21.4361 17.5713 21.4122 17.3453C21.1854 15.1096 19.2486 13.4422 17.004 13.5505C15.9654 13.4631 14.9477 13.8779 14.266 14.6663C13.0074 16.2487 13.3493 19.267 13.5869 20.2967C13.656 20.595 13.5607 20.9075 13.3368 21.1164C13.113 21.3253 12.7946 21.3988 12.5018 21.3093C12.209 21.2198 11.9863 20.9808 11.9175 20.6825C11.6656 19.4744 11.5914 18.2359 11.6973 17.0063C10.399 16.9687 8.96733 16.6596 6.85027 14.5425C6.63386 14.3261 6.54933 14.0105 6.62852 13.7149C6.70772 13.4193 6.93874 13.1883 7.23433 13.1091C7.53002 13.0299 7.84549 13.1145 8.06189 13.3309C9.88392 15.1529 10.8544 15.2945 12.0426 15.2964C12.2326 14.6824 12.5314 14.1076 12.9249 13.5995C13.5631 12.8012 14.4541 12.244 15.4512 12.0196C14.6375 10.3144 14.4221 8.38466 14.8394 6.54192C14.9131 6.24464 15.1398 6.0094 15.4341 5.92467C15.7284 5.83995 16.0454 5.91886 16.2658 6.13142C16.4862 6.34408 16.5763 6.65813 16.5022 6.95523C16.4954 6.98456 15.8017 9.96133 17.4072 11.8569C20.3685 11.9516 22.8057 14.2172 23.1158 17.1638C23.1401 17.3896 23.0735 17.616 22.9308 17.7927ZM32.8572 11.5148C31.3006 11.538 29.7771 11.0664 28.5061 10.1679C28.0383 10.7422 27.7423 11.4371 27.6523 12.1722C27.5666 12.906 27.8227 13.6386 28.3468 14.1592C28.5632 14.3756 28.6478 14.6911 28.5686 14.9867C28.4894 15.2824 28.2585 15.5134 27.9628 15.5925C27.6671 15.6717 27.3516 15.5872 27.1352 15.3708C26.2514 14.4897 25.8141 13.2558 25.9457 12.0148C26.0774 10.8789 26.547 9.80875 27.2938 8.94277C26.4613 7.7333 26.0397 6.28822 26.0914 4.82092C26.0914 4.34773 26.475 3.96403 26.9482 3.96403C27.4215 3.96403 27.8051 4.34763 27.8051 4.82092C27.7275 6.1124 28.1659 7.38185 29.0238 8.35036L29.0315 8.35551C29.0361 8.3601 29.0372 8.36629 29.0417 8.37088C30.0797 9.32477 31.4481 9.83762 32.8573 9.80106C33.3305 9.80106 33.7142 10.1847 33.7142 10.658C33.7142 11.1312 33.3304 11.5148 32.8572 11.5148ZM27.8505 27.7039C28.638 27.0636 29.5866 26.6525 30.5923 26.5153C30.8828 24.145 32.4504 23.4831 33.3207 23.4831C33.79 23.4832 34.1718 23.8608 34.1772 24.3301C34.1826 24.7993 33.8095 25.1855 33.3404 25.1964C33.2333 25.2039 32.5274 25.3114 32.3176 26.5563C33.352 26.7774 34.2947 27.3078 35.0206 28.0771C35.2201 28.3094 35.2803 28.6304 35.1789 28.9193C35.0774 29.2081 34.8296 29.4209 34.5288 29.4774C34.2279 29.5339 33.9197 29.4257 33.7203 29.1934C33.1085 28.5634 32.2756 28.1962 31.3978 28.1696C30.5285 28.1601 29.6815 28.4457 28.9954 28.9796C28.6426 29.2911 28.1047 29.2598 27.7904 28.9095C27.476 28.5592 27.5029 28.0211 27.8505 27.7039Z" fill="#ED5A87"/>
<path d="M44.9885 28.3682C44.9925 28.3788 44.9941 28.3927 44.9981 28.4035C45.0627 28.5843 45.1129 28.7699 45.148 28.9586C45.1557 28.9993 45.1612 29.0416 45.1678 29.0835C45.2052 29.3111 45.2244 29.5414 45.2253 29.7719C44.9417 32.3708 42.7126 34.3179 40.0992 34.2496C39.4927 34.2612 38.8862 34.2266 38.285 34.1457L38.2766 34.144C38.0888 34.1148 37.9031 34.078 37.7185 34.031L37.7157 34.0301C37.5267 33.982 37.3405 33.9237 37.158 33.8552C37.1384 33.8478 37.1186 33.8367 37.0991 33.8291C36.9273 33.7633 36.759 33.6886 36.595 33.6055C36.5828 33.5993 36.5702 33.5901 36.558 33.5838C36.374 33.4881 36.1949 33.3832 36.0215 33.2691C36.0122 33.263 36.0025 33.2546 35.9932 33.2484C35.8094 33.1257 35.6234 32.9907 35.4328 32.8363C34.7642 33.7745 33.8727 34.5318 32.8386 35.0398L32.8472 35.0535C33.9161 36.6786 34.6681 38.4912 35.0635 40.3958C37.2791 40.3008 39.4427 39.6944 41.3848 38.6239C45.4253 36.2914 47.4081 32.1346 45.8048 29.3577C45.5884 28.9855 45.3127 28.6513 44.9885 28.3682Z" fill="#ED5A87"/>
</g>
<defs>
<clipPath id="clip0_0_83">
<rect width="48" height="48" fill="white"/>
</clipPath>
</defs>
</svg>
