<svg width="34" height="34" viewBox="0 0 34 34" fill="none" xmlns="http://www.w3.org/2000/svg">
<g clip-path="url(#clip0_0_94)">
<path d="M12.5918 17.9158L24.4087 13.6139C23.9633 13.1581 23.4206 12.8091 22.8209 12.5931L14.8352 9.68604L11.9269 17.6753L12.5918 17.9158Z" fill="#5757D8"/>
<path d="M12.8006 19.1323H12.797L11.1801 19.7206C9.75302 20.24 8.71146 21.481 8.44763 22.9766C8.18355 24.4718 8.73766 25.9946 9.90088 26.9708C11.0638 27.947 12.6595 28.2287 14.0866 27.7094L22.0748 24.8023L19.1688 16.8154L12.8006 19.1323ZM12.1438 21.8951C11.8084 21.8951 11.5365 21.6232 11.5365 21.2878C11.5365 20.9526 11.8084 20.6807 12.1438 20.6807C12.479 20.6807 12.7508 20.9526 12.7508 21.2878C12.7508 21.6232 12.479 21.8951 12.1438 21.8951ZM17.5264 20.0366L15.3873 20.8154C15.3209 20.84 15.2506 20.8527 15.1795 20.8525C14.8848 20.8527 14.6324 20.641 14.581 20.3508C14.5299 20.0605 14.6946 19.7751 14.972 19.6747L17.1116 18.8962C17.3179 18.8116 17.5537 18.8467 17.7262 18.9875C17.899 19.1286 17.9804 19.3528 17.9386 19.5715C17.8969 19.7904 17.7386 19.9689 17.5264 20.0366Z" fill="#5757D8"/>
<path d="M13.6943 9.27055L5.70742 6.36275C3.50108 5.56478 1.06464 6.69921 0.255006 8.9014C0.0848288 9.36627 -0.00155681 9.85761 -3.16482e-07 10.3526C0.00233443 12.1394 1.1199 13.7346 2.79858 14.3471L10.7878 17.2562L13.6943 9.27055ZM1.82162 10.3585C1.4862 10.3585 1.21433 10.0867 1.21433 9.7515C1.21433 9.41608 1.4862 9.14421 1.82162 9.14421C2.15679 9.14421 2.42866 9.41608 2.42866 9.7515C2.42866 10.0867 2.15679 10.3585 1.82162 10.3585ZM5.65528 8.2801C5.54113 8.59529 5.19326 8.75846 4.87807 8.64458L4.25391 8.53692C4.06661 8.53744 3.88035 8.56675 3.70213 8.62382C3.39135 8.70294 3.07253 8.5268 2.97421 8.22173C2.87589 7.91639 3.0318 7.58719 3.33039 7.4702C3.47825 7.42324 3.62949 7.38718 3.78281 7.3628C3.93846 7.33712 4.09618 7.32363 4.25391 7.32259L5.03709 7.42662L5.28976 7.506C5.60365 7.61962 5.76708 7.96542 5.65528 8.2801ZM10.3556 10.6397L8.52909 9.97175C8.31974 9.90197 8.16461 9.72401 8.12414 9.50688C8.08393 9.28974 8.16461 9.06794 8.33479 8.92734C8.50522 8.78699 8.73844 8.7499 8.9439 8.83084L10.7702 9.49572C10.9798 9.5655 11.1347 9.74372 11.1751 9.96085C11.2153 10.1777 11.1349 10.3998 10.9645 10.5401C10.7941 10.6807 10.5608 10.7176 10.3556 10.6366V10.6397Z" fill="#5757D8"/>
<path d="M33.7449 16.0315C33.3594 14.9715 32.5684 14.1084 31.5461 13.6319C30.524 13.1553 29.3543 13.1047 28.2948 13.491L25.6262 14.4625C25.622 14.4625 25.6194 14.468 25.6153 14.4693L20.3071 16.4006L23.2162 24.3844L31.2049 21.4766C33.4071 20.6714 34.5428 18.2362 33.7449 16.0315ZM24.8485 17.3314L22.7085 18.1099C22.3933 18.2243 22.0449 18.0616 21.9305 17.7465C21.8161 17.4313 21.9788 17.0829 22.294 16.9685L24.4331 16.1876C24.7483 16.073 25.0967 16.2354 25.2114 16.5505C25.326 16.8657 25.1636 17.2144 24.8485 17.3291V17.3314ZM31.6392 15.8452C31.4465 16.1191 31.0682 16.1856 30.7938 15.9933C30.6425 15.8883 30.4765 15.8063 30.3009 15.7502C30.2129 15.7225 30.1229 15.7012 30.0319 15.6867C29.9392 15.6714 29.8459 15.6631 29.7519 15.6623L29.1278 15.7741L26.9873 16.5518C26.6753 16.6559 26.3372 16.4924 26.2247 16.1832C26.1123 15.874 26.2667 15.5316 26.5728 15.4109L29.4837 14.4589L29.7519 14.448C29.9097 14.448 30.0669 14.4604 30.2225 14.4851C30.3758 14.5089 30.5271 14.545 30.6749 14.5925C30.8205 14.6394 30.9626 14.6968 31.0999 14.7642C31.2368 14.8327 31.3686 14.9113 31.4939 14.9992C31.7673 15.1928 31.8325 15.5715 31.6392 15.8452Z" fill="#5757D8"/>
</g>
<defs>
<clipPath id="clip0_0_94">
<rect width="34" height="34" fill="white"/>
</clipPath>
</defs>
</svg>
