<svg width="48" height="48" viewBox="0 0 48 48" fill="none" xmlns="http://www.w3.org/2000/svg">
<path d="M45.0052 9.03446C44.3114 6.4086 42.2801 3.90317 39.287 1.98042C37.2709 0.685302 34.7867 0 32.0998 0C29.9387 0 27.7183 0.445277 25.6768 1.29003L25.5224 1.35534C25.4401 1.39096 25.3604 1.42658 25.2748 1.45627C24.8804 1.59282 24.5776 1.71071 24.3308 1.80655C24.0458 1.91681 23.8821 1.97788 23.7549 2.00926L26.005 4.19578C28.8344 6.60706 28.8251 8.98526 28.809 13.3049L28.8056 14.4185C28.8056 14.8875 28.4265 15.2666 27.9574 15.2666C27.4884 15.2666 27.1093 14.8875 27.1093 14.4185L27.1118 13.2998C27.1288 9.11842 27.1347 7.3882 24.8634 5.45019L20.5429 1.25186C18.549 0.729406 16.2556 0.267166 14.0419 0.267166C12.6391 0.267166 11.3838 0.459695 10.3135 0.838817C5.45272 2.5614 1.14584 8.2618 2.47743 17.1147C2.63603 18.1622 2.7887 19.2181 2.94306 20.2792C4.05667 27.9261 5.20591 35.8333 8.1634 42.9739L8.26518 43.2207C8.99882 45.0077 10.2278 48 12.3668 48H12.539L12.6976 47.933C14.661 47.1018 15.3955 45.2172 15.9316 43.8415C16.2937 42.9128 16.616 41.9671 16.9273 41.0528C17.7144 38.7433 18.4574 36.5619 19.7966 34.6035C21.2333 32.501 23.0458 31.2966 24.7684 31.2966C25.5284 31.2966 26.2976 31.5248 27.0525 31.9743C29.3891 33.3661 30.1219 36.1743 30.831 38.8901C31.0328 39.6653 31.2423 40.4668 31.4849 41.2148C32.5536 44.5039 33.9445 47.866 36.1658 47.866C37.209 47.866 38.1352 47.1332 38.9961 45.6243C40.6584 42.711 41.3717 39.466 42.0604 36.3278L42.3021 35.2312C42.5736 34.0183 42.8755 32.7673 43.1834 31.4883C44.9161 24.2867 46.8813 16.1258 45.0052 9.03446Z" fill="#DB8CD2"/>
</svg>
