<svg width="119" height="92" viewBox="0 0 119 92" fill="none" xmlns="http://www.w3.org/2000/svg">
<path d="M86.3872 29.1092C79.4764 37.5961 71.7775 44.2644 63.4725 50.2053C53.3488 57.4191 42.2552 62.2688 29.6461 62.8144C20.3711 63.1781 14.794 57.7223 14.7333 48.5079C14.7333 43.9613 14.6727 39.4148 14.7333 34.8682C14.794 30.9885 16.6126 29.1092 20.4923 29.0486C25.342 28.988 30.1917 29.1092 35.0413 28.988C36.9812 28.9274 37.5268 29.7154 37.4055 31.4734C37.2843 32.989 37.4055 34.5045 37.4055 36.02C37.4055 38.2023 38.3755 39.6572 40.5578 39.5966C42.6795 39.536 43.3464 37.8992 43.3464 35.9594C43.3464 26.4419 43.3464 16.9851 43.3464 7.46759C43.3464 1.46613 44.4982 0.314336 50.3784 0.314336C57.471 0.314336 64.503 0.314336 71.5957 0.314336C76.0816 0.314336 77.6578 1.82986 77.6578 6.25518C77.6578 10.923 77.5365 15.5302 77.7184 20.198C77.8396 22.5622 76.9303 23.229 74.748 22.9865C73.778 22.8653 72.7475 22.9259 71.7169 23.0471C69.8983 23.229 68.5646 24.0777 68.6253 26.0782C68.6859 28.018 69.9589 28.9274 71.8382 28.988C75.8998 29.0486 79.9007 28.988 83.9623 29.0486C84.5685 28.988 85.1747 29.0486 86.3872 29.1092Z" fill="#5892EC"/>
<path d="M106.271 44.9312C106.271 49.1747 106.331 53.4182 106.271 57.6616C106.21 61.2989 104.331 63.2387 100.633 63.2994C93.9648 63.36 87.2965 63.4206 80.6282 63.2994C78.3246 63.2387 77.4759 63.7843 77.5365 66.2698C77.7184 72.9381 77.5971 79.6064 77.5971 86.2746C77.5971 90.3969 76.021 91.973 71.9594 91.973C64.2606 91.973 56.6223 92.0336 48.9235 91.973C44.9225 91.973 43.407 90.4575 43.2858 86.5171C43.0433 78.5758 43.1039 78.697 50.3784 75.4235C68.3222 67.4216 82.3862 54.6306 94.2679 39.2329C96.4502 36.3837 98.3901 33.292 100.33 30.2004C101.179 28.8667 102.027 27.8968 103.664 28.3211C105.361 28.7455 106.15 29.8973 106.15 31.6553C106.271 36.0806 106.271 40.5059 106.271 44.9312Z" fill="#5892EC"/>
<path d="M1.33615 53.0545C6.97388 63.7844 16.8551 66.6336 27.8274 66.7548C40.5578 66.9367 52.0151 62.4507 62.5025 55.5399C75.2329 47.1137 86.2053 36.6869 94.9347 24.0777C96.2684 22.1379 96.6927 20.8648 95.0559 18.6219C91.6005 13.8934 92.5099 8.61943 96.8139 4.55784C97.4808 3.95163 97.9657 3.16356 98.4507 2.43611C100.572 -0.473688 103.24 -0.776792 106.028 1.5268C106.816 2.13301 107.423 2.73921 106.695 3.76977C105.907 4.92156 104.877 4.80032 104.21 3.89101C101.542 0.496245 100.391 3.22418 99.2388 5.16405C98.3295 6.67957 97.6626 8.43757 97.1777 10.135C96.1471 13.7722 97.7233 17.5913 100.815 19.6524C103.846 21.6529 108.211 21.5317 111.06 19.2887C112.333 18.3188 113.606 17.2276 114.576 16.0152C115.909 14.3178 118.395 12.3173 114.151 10.923C113.182 10.6199 112.515 9.77123 113.424 8.49819C114.333 7.22516 115.061 7.83136 115.909 8.43757C119.183 10.7412 119.607 12.7416 117.243 15.8939C116.273 17.1063 116.031 18.6219 115.243 19.8949C112.636 23.8353 107.908 25.8357 103.058 24.3202C100.815 23.6534 100.148 24.4415 99.1175 26.0176C87.6602 43.537 73.2931 58.0254 55.1674 68.634C44.6194 74.8174 33.2227 77.909 20.9167 76.0904C9.51996 74.393 2.3667 66.876 0.911801 55.4187C0.487455 54.5094 -0.300616 53.4788 1.33615 53.0545Z" fill="#5892EC"/>
<path d="M1.33615 53.0545C0.729937 53.7819 0.851179 54.6912 0.729937 55.4793C-0.118754 53.1757 -0.118754 53.1151 0.18435 50.084C1.03304 51.054 1.2149 52.0239 1.33615 53.0545Z" fill="#5892EC"/>
</svg>
