<svg width="34" height="34" viewBox="0 0 34 34" fill="none" xmlns="http://www.w3.org/2000/svg">
<path d="M25.502 10.2748C25.3459 10.1818 25.1537 10.1754 24.9918 10.2576C24.8301 10.34 24.7208 10.4997 24.7014 10.6818C24.6822 10.8588 24.6523 11.0358 24.6149 11.2215C23.5698 16.017 21.4711 18.3495 18.197 18.3495H13.3932C13.1399 18.35 12.9218 18.5303 12.8712 18.7812L11.2699 26.3702L10.9838 28.3022C10.8193 29.1808 11.3904 30.0279 12.2593 30.1942C12.3551 30.2125 12.4523 30.222 12.5498 30.2224H15.7631C16.4996 30.2247 17.1417 29.7165 17.3163 28.993L18.6144 23.7463H21.3996C24.6864 23.7463 26.9582 21.0965 27.7961 16.2847C28.3493 13.9935 27.4341 11.5962 25.502 10.2748Z" fill="#03A9F4"/>
<path d="M24.7008 6.07923C23.6317 4.86955 22.0975 4.17022 20.4808 4.1558H11.5215C10.1807 4.14862 9.03923 5.12718 8.84461 6.45049L6.06269 24.9627C5.92944 25.8469 6.53997 26.6714 7.42641 26.8044C7.50686 26.8165 7.58816 26.8225 7.66952 26.8224H11.8245C12.0813 26.822 12.3023 26.6416 12.3537 26.3907L13.8848 19.2669H18.3211C22.171 19.2669 24.7149 16.5825 25.8835 11.2796C25.9305 11.0682 25.9666 10.8546 25.9917 10.6395C26.263 9.00352 25.7898 7.33201 24.7008 6.07923Z" fill="#283593"/>
</svg>
