<svg width="34" height="34" viewBox="0 0 34 34" fill="none" xmlns="http://www.w3.org/2000/svg">
<path d="M30.0241 22.066C29.5141 21.7727 28.866 21.9481 28.5728 22.4549L25.7593 20.8303C26.1396 19.9633 26.3946 19.0294 26.5019 18.0508C26.5232 18.0519 26.5413 18.0625 26.5625 18.0625H28.6875C29.274 18.0625 29.75 17.5876 29.75 17C29.75 16.4124 29.274 15.9375 28.6875 15.9375H26.5625C26.5413 15.9375 26.5232 15.9481 26.5019 15.9492C26.3946 14.9696 26.1386 14.0367 25.7593 13.1697L28.5728 11.5451C28.7704 11.8851 29.1263 12.0764 29.4939 12.0764C29.6735 12.0764 29.8563 12.0307 30.0241 11.934C30.532 11.6407 30.7063 10.9905 30.413 10.4826L29.3505 8.64237C29.0573 8.1345 28.4081 7.95813 27.8991 8.2535C27.3913 8.54675 27.217 9.197 27.5103 9.70487L24.6893 11.3337C24.1304 10.5761 23.4643 9.90675 22.7099 9.34362L24.2643 6.95619C24.5841 6.46425 24.4449 5.8055 23.9541 5.48569C23.4632 5.16588 22.8034 5.304 22.4846 5.79594L20.8771 8.26519C20.0005 7.87419 19.0549 7.60962 18.0625 7.50019V4.25C18.649 4.25 19.125 3.77506 19.125 3.1875C19.125 2.59994 18.649 2.125 18.0625 2.125H15.9375C15.351 2.125 14.875 2.59994 14.875 3.1875C14.875 3.77506 15.351 4.25 15.9375 4.25V7.50019C14.9451 7.60962 13.9995 7.87419 13.1229 8.26412L11.5154 5.79487C11.1956 5.30294 10.5368 5.16481 10.0459 5.48463C9.554 5.80444 9.41481 6.46319 9.73463 6.95512L11.2891 9.34256C10.5347 9.90569 9.8685 10.5761 9.30963 11.3326L6.48975 9.70487C6.783 9.19594 6.60875 8.54675 6.10088 8.2535C5.59088 7.95813 4.94169 8.1345 4.64844 8.64237L3.58594 10.4826C3.29269 10.9916 3.46694 11.6407 3.97481 11.934C4.14269 12.0307 4.32544 12.0764 4.505 12.0764C4.87263 12.0764 5.22856 11.8851 5.42619 11.5451L8.23969 13.1697C7.86038 14.0367 7.60325 14.9706 7.497 15.9492C7.47682 15.9481 7.45875 15.9375 7.4375 15.9375H5.3125C4.726 15.9375 4.25 16.4124 4.25 17C4.25 17.5876 4.726 18.0625 5.3125 18.0625H7.4375C7.45875 18.0625 7.47682 18.0519 7.49806 18.0508C7.60538 19.0304 7.86144 19.9633 8.24075 20.8303L5.42725 22.4549C5.13294 21.947 4.48375 21.7717 3.97588 22.066C3.468 22.3592 3.29375 23.0095 3.587 23.5174L4.6495 25.3576C4.84713 25.6976 5.20306 25.8889 5.57069 25.8889C5.75025 25.8889 5.933 25.8432 6.10088 25.7465C6.60875 25.4533 6.783 24.803 6.48975 24.2951L9.31069 22.6663C9.86956 23.4239 10.5358 24.0933 11.2901 24.6564L9.73569 27.0438C9.41588 27.5357 9.55506 28.1945 10.0459 28.5143C10.2244 28.6312 10.4253 28.6875 10.6239 28.6875C10.9714 28.6875 11.3114 28.5175 11.5154 28.2051L13.1229 25.7359C14.0006 26.1258 14.9451 26.3904 15.9375 26.4998V29.75C15.351 29.75 14.875 30.2249 14.875 30.8125C14.875 31.4001 15.351 31.875 15.9375 31.875H18.0625C18.649 31.875 19.125 31.4001 19.125 30.8125C19.125 30.2249 18.649 29.75 18.0625 29.75V26.4998C19.0549 26.3904 20.0005 26.1258 20.8771 25.7359L22.4846 28.2051C22.6886 28.5175 23.0286 28.6875 23.3761 28.6875C23.5748 28.6875 23.7756 28.6312 23.9541 28.5154C24.446 28.1956 24.5852 27.5368 24.2643 27.0449L22.7099 24.6574C23.4643 24.0943 24.1304 23.4239 24.6893 22.6674L27.5103 24.2962C27.217 24.8051 27.3913 25.4543 27.8991 25.7476C28.067 25.8442 28.2498 25.8899 28.4293 25.8899C28.7969 25.8899 29.1539 25.6987 29.3505 25.3587L30.413 23.5184C30.7063 23.0084 30.532 22.3592 30.0241 22.066ZM12.75 21.25C11.5759 21.25 10.625 20.2991 10.625 19.125C10.625 17.9509 11.5759 17 12.75 17C13.9241 17 14.875 17.9509 14.875 19.125C14.875 20.2991 13.9241 21.25 12.75 21.25ZM17.5313 13.8125C16.6515 13.8125 15.9375 13.0985 15.9375 12.2188C15.9375 11.339 16.6515 10.625 17.5313 10.625C18.411 10.625 19.125 11.339 19.125 12.2188C19.125 13.0985 18.411 13.8125 17.5313 13.8125ZM19.125 20.7188C19.125 19.839 19.839 19.125 20.7188 19.125C21.5985 19.125 22.3125 19.839 22.3125 20.7188C22.3125 21.5985 21.5985 22.3125 20.7188 22.3125C19.839 22.3125 19.125 21.5985 19.125 20.7188Z" fill="#7E65C3"/>
</svg>
