<svg width="24" height="24" viewBox="0 0 24 24" fill="none" xmlns="http://www.w3.org/2000/svg">
<path d="M10.4899 2.22957L5.49991 4.10957C4.34991 4.53957 3.40991 5.89957 3.40991 7.11957V14.5496C3.40991 15.7296 4.18991 17.2796 5.13991 17.9896L9.43991 21.1996C10.8499 22.2596 13.1699 22.2596 14.5799 21.1996L18.8799 17.9896C19.8299 17.2796 20.6099 15.7296 20.6099 14.5496V7.11957C20.6099 5.88957 19.6699 4.52957 18.5199 4.09957L13.5299 2.22957C12.6799 1.91957 11.3199 1.91957 10.4899 2.22957Z" stroke="#030401" stroke-width="1.5" stroke-linecap="round" stroke-linejoin="round"/>
<path d="M12 12.5C13.1046 12.5 14 11.6046 14 10.5C14 9.39543 13.1046 8.5 12 8.5C10.8954 8.5 10 9.39543 10 10.5C10 11.6046 10.8954 12.5 12 12.5Z" stroke="#030401" stroke-width="1.5" stroke-miterlimit="10" stroke-linecap="round" stroke-linejoin="round"/>
<path d="M12 12.5V15.5" stroke="#030401" stroke-width="1.5" stroke-miterlimit="10" stroke-linecap="round" stroke-linejoin="round"/>
</svg>
