<svg width="34" height="34" viewBox="0 0 34 34" fill="none" xmlns="http://www.w3.org/2000/svg">
<g clip-path="url(#clip0_0_139)">
<path d="M12.1428 13.357C12.1251 12.9107 12.0209 12.472 11.8359 12.0653C11.5465 11.9431 11.2229 11.9279 10.9232 12.0223C10.1092 12.2584 9.23219 11.9989 8.6779 11.3576C8.09857 10.7784 7.6415 10.3212 6.67861 10.3212C6.34332 10.3212 6.07146 10.0494 6.07146 9.71409C6.07146 9.3788 6.34326 9.10694 6.67861 9.10694C7.79018 9.1258 8.83641 9.63546 9.5364 10.4991C9.80595 10.8565 10.2801 10.9914 10.6973 10.8294C10.8562 10.7972 11.0167 10.7733 11.1781 10.7579L11.1699 10.7429C10.7142 10.0725 10.4234 9.30396 10.3214 8.49985C10.2584 7.95306 9.92773 7.47328 9.43918 7.2198C9.14202 7.06767 9.02341 6.70409 9.17369 6.406C9.32397 6.10783 9.68681 5.98697 9.98584 6.13539C10.3727 6.3459 10.7137 6.63164 10.9885 6.97583C11.0287 6.93426 11.0685 6.89428 11.1064 6.85636C11.4041 6.55873 11.5357 6.41283 11.5357 6.07131C11.5357 5.73602 11.8075 5.46416 12.1428 5.46416C12.4781 5.46416 12.75 5.73596 12.75 6.07131C12.7428 6.70794 12.4557 7.30912 11.9649 7.71486C11.6673 8.0125 11.5357 8.15839 11.5357 8.49992C11.6599 9.09193 11.8968 9.65459 12.2336 10.1571C12.8681 11.1138 13.2543 12.2136 13.3572 13.3571C13.3572 14.7545 14.6421 16.5682 16.3629 17.74C16.2823 16.5061 16.1266 15.2782 15.8966 14.0632C15.4045 11.428 15.164 8.75206 15.1785 6.07137V5.95755C15.179 5.7922 15.1792 5.61171 15.1727 5.42484L15.1724 5.4107C15.1691 5.32205 15.1638 5.2318 15.1566 5.14115L15.1549 5.11658C15.1474 5.0278 15.1369 4.93862 15.1241 4.84976L15.1199 4.81842C15.1066 4.73163 15.0896 4.64557 15.0698 4.56043C15.0668 4.54782 15.0643 4.53513 15.0612 4.52258C15.0408 4.43997 15.016 4.35896 14.9879 4.27953C14.9828 4.26512 14.9779 4.25071 14.9725 4.2365C14.9436 4.15987 14.91 4.0851 14.872 4.01258C14.8642 3.99771 14.8561 3.98296 14.848 3.96829C14.8087 3.89783 14.7644 3.83036 14.7155 3.76635C14.6768 3.71156 14.6344 3.65943 14.5887 3.61029C14.0758 3.18337 13.4148 2.97684 12.7501 3.03574C11.1145 3.09916 9.54357 3.69124 8.27302 4.72319C6.3673 6.15119 4.76764 7.94722 3.56887 10.0049L2.36466 12.4145C1.91987 13.1708 1.52529 13.9555 1.18356 14.7636C0.610672 16.4805 0 19.1029 0 28.5355C0 31.0561 1.27181 33.9999 4.85715 33.9999C5.01845 33.9999 7.59521 33.9981 7.74941 33.9951C10.6932 33.949 13.3522 32.2259 14.597 29.5577C15.5913 27.1484 16.1614 24.5852 16.282 21.9816C14.864 22.4266 13.3011 23.9859 12.5722 24.7149C12.3892 24.8978 12.2077 25.0669 12.0266 25.2292C12.0091 25.2621 11.9885 25.2932 11.965 25.322C11.3203 26.2726 10.9608 27.3875 10.9286 28.5356C11.0072 29.7378 10.4096 30.8837 9.37875 31.5073C9.07893 31.6563 8.71509 31.5345 8.56541 31.2351C8.41573 30.9357 8.53659 30.5715 8.83568 30.4211C9.44715 29.997 9.7829 29.2766 9.71437 28.5356C9.73482 27.8863 9.84147 27.2425 10.0317 26.6213C8.73793 27.3167 7.18688 27.3397 5.8731 26.6831C5.75756 26.6614 5.64566 26.6233 5.54074 26.5702C4.99368 26.5537 4.4635 26.7607 4.07223 27.1434C3.91936 27.2991 3.69464 27.3608 3.48374 27.3049C3.27283 27.2491 3.10808 27.0843 3.05223 26.8734C2.99638 26.6625 3.05807 26.4378 3.21373 26.2849C3.58321 25.9363 4.01864 25.6651 4.49438 25.4871C4.41608 25.3571 4.35227 25.2404 4.31415 25.1642C4.16513 24.8646 4.28666 24.501 4.58588 24.3511C4.88511 24.2012 5.24908 24.3217 5.39976 24.6205C5.54811 24.9179 5.74414 25.1891 5.98015 25.4232C6.08587 25.455 6.1892 25.4945 6.28914 25.5414C6.31716 25.5509 6.34439 25.5625 6.37055 25.5762C8.05143 26.4012 9.69989 25.8707 11.7137 23.8563C12.6481 22.922 14.4877 21.0872 16.3511 20.7144C16.3527 20.674 16.356 20.6359 16.3575 20.5954C15.6461 20.4769 14.9575 20.2485 14.3163 19.9185C14.2552 19.9642 14.1858 19.9979 14.1121 20.0177C14.0653 20.083 13.9995 20.1968 13.9485 20.2852C13.5278 21.2417 12.5809 21.8587 11.536 21.857C10.5731 21.857 10.1159 22.3141 9.53667 22.8934C9.3838 23.0491 9.15908 23.1108 8.94818 23.0549C8.73727 22.9991 8.57252 22.8343 8.51667 22.6234C8.46082 22.4125 8.52251 22.1878 8.67817 22.0349C8.95482 21.7452 9.2571 21.4813 9.58136 21.2461C9.47723 21.1694 9.38075 21.0927 9.29355 21.0216C8.97162 20.759 8.81629 20.6428 8.50027 20.6428C8.16498 20.6428 7.89311 20.371 7.89311 20.0356C7.89311 19.7003 8.16491 19.4285 8.50027 19.4285C9.08464 19.4394 9.64292 19.6726 10.0614 20.0806C10.4536 20.4645 10.9878 20.6681 11.536 20.6427C12.3399 20.6427 12.6109 20.1743 12.8967 19.678C12.9731 19.5408 13.0577 19.4083 13.15 19.2811C12.8448 19.0984 12.5445 18.9122 12.254 18.7299C11.5888 18.271 10.8766 17.884 10.1296 17.5755C9.40903 17.3037 8.62159 17.2635 7.87711 17.4605C7.49182 17.548 7.0987 17.5964 6.70364 17.6051L6.6984 17.6063C6.40097 17.8402 6.16389 18.1419 6.00711 18.4862C5.85643 18.785 5.49239 18.9055 5.19323 18.7556C4.89407 18.6058 4.77248 18.2421 4.9215 17.9425C5.02695 17.735 5.14728 17.5353 5.28155 17.3451C4.96699 17.2253 4.67759 17.0479 4.42823 16.8219C4.19482 16.5842 4.19654 16.2028 4.43209 15.9672C4.66763 15.7317 5.049 15.73 5.28673 15.9634C5.68524 16.267 6.17864 16.4191 6.67894 16.3926C7.00247 16.3846 7.32434 16.3433 7.63944 16.2693C8.59138 16.0309 9.59305 16.0848 10.5139 16.424C11.3546 16.7592 12.1549 17.1878 12.8998 17.7018C13.9531 18.4585 15.133 19.0213 16.3839 19.3639C16.3847 19.3021 16.3866 19.2421 16.3871 19.1798C13.9814 17.8393 12.1428 15.3463 12.1428 13.357Z" fill="#F7B289"/>
<path d="M32.8171 14.7636C32.4792 13.9645 32.089 13.1885 31.6491 12.4406L30.4212 9.98589C29.2234 7.93593 27.6274 6.14648 25.727 4.72319C24.4565 3.69131 22.8856 3.09923 21.25 3.03574C20.5853 2.97684 19.9243 3.18337 19.4114 3.61023C19.3657 3.65937 19.3234 3.71149 19.2846 3.76628C19.2357 3.83023 19.1914 3.8977 19.1522 3.96809C19.144 3.9829 19.1358 3.99777 19.1281 4.01285C19.0901 4.08523 19.0567 4.1598 19.0278 4.2363C19.0224 4.25078 19.0173 4.26532 19.0122 4.27993C18.9841 4.35922 18.9594 4.4401 18.9389 4.52265C18.9359 4.5352 18.9332 4.54788 18.9304 4.5605C18.9105 4.64563 18.8935 4.73169 18.8802 4.81849L18.876 4.84983C18.8632 4.93862 18.8527 5.0278 18.8452 5.11652L18.8435 5.14262C18.8363 5.23246 18.831 5.32205 18.8278 5.40997L18.8272 5.43487C18.821 5.61815 18.8211 5.79539 18.8215 5.95775V6.07157C18.8361 8.75226 18.5957 11.4283 18.1035 14.0634C17.8734 15.2784 17.7177 16.5063 17.6372 17.7402C19.358 16.5684 20.6429 14.7547 20.6429 13.3573C20.7458 12.2138 21.1319 11.1141 21.7665 10.1573C22.1032 9.65472 22.3401 9.09213 22.4644 8.50012C22.4644 8.15859 22.3328 8.01269 22.0351 7.71506C21.5444 7.30939 21.2572 6.70821 21.2501 6.07151C21.2501 5.73622 21.5219 5.46435 21.8572 5.46435C22.1926 5.46435 22.4644 5.73615 22.4644 6.07151C22.4644 6.41303 22.596 6.55886 22.8936 6.85649C22.9315 6.89441 22.9713 6.93439 23.0116 6.97596C23.2864 6.63178 23.6273 6.34603 24.0142 6.13552C24.314 5.98651 24.6779 6.1083 24.8276 6.40772C24.9772 6.70715 24.8564 7.07132 24.5573 7.22173C24.0705 7.47567 23.7412 7.95452 23.6786 8.50005C23.5766 9.30416 23.2859 10.0727 22.8301 10.7431L22.8219 10.7581C22.9833 10.7736 23.1438 10.7974 23.3027 10.8296C23.72 10.9915 24.1941 10.8566 24.4637 10.4993C25.1637 9.63566 26.2099 9.12599 27.3215 9.10713C27.6567 9.10713 27.9286 9.37894 27.9286 9.71429C27.9286 10.0496 27.6568 10.3214 27.3215 10.3214C26.3586 10.3214 25.9014 10.7786 25.3222 11.3578C24.7681 11.9995 23.8908 12.2592 23.0768 12.0225C22.7771 11.9281 22.4536 11.9433 22.1641 12.0655C21.9792 12.4721 21.8749 12.9108 21.8572 13.3571C21.8572 15.3464 20.0186 17.8394 17.6133 19.18C17.6138 19.2423 17.6158 19.3022 17.6164 19.3641C18.8673 19.0215 20.0472 18.4587 21.1006 17.702C21.8455 17.188 22.6458 16.7594 23.4865 16.4242C24.4073 16.085 25.409 16.031 26.361 16.2695C26.6761 16.3435 26.9979 16.3848 27.3215 16.3928C27.8251 16.4199 28.3217 16.2651 28.7207 15.9564C28.963 15.7286 29.3431 15.7365 29.5757 15.9742C29.8068 16.2101 29.8052 16.5881 29.5721 16.8221C29.3227 17.0481 29.0333 17.2256 28.7188 17.3453C28.853 17.5355 28.9733 17.7352 29.0788 17.9427C29.2278 18.2423 29.1063 18.606 28.8071 18.7558C28.5079 18.9056 28.1439 18.7852 27.9932 18.4864C27.8372 18.1397 27.5978 17.837 27.2963 17.6053C26.9014 17.5966 26.5084 17.5482 26.1232 17.4607C25.3787 17.2634 24.5912 17.3037 23.8707 17.5757C23.1237 17.8842 22.4115 18.2712 21.7463 18.7301C21.4558 18.9124 21.1555 19.0987 20.8502 19.2813C20.9425 19.4084 21.0271 19.5409 21.1036 19.6782C21.3894 20.1745 21.6603 20.6429 22.4643 20.6429C23.0126 20.6683 23.5467 20.4647 23.9389 20.0808C24.3573 19.6728 24.9156 19.4396 25.5 19.4287C25.8353 19.4287 26.1072 19.7005 26.1072 20.0358C26.1072 20.3712 25.8354 20.643 25.5 20.643C25.184 20.643 25.0286 20.7592 24.7066 21.0219C24.6195 21.093 24.523 21.1696 24.4188 21.2464C24.7431 21.4815 25.0454 21.7455 25.3221 22.0352C25.5555 22.2728 25.5538 22.6542 25.3182 22.8898C25.0827 23.1254 24.7013 23.1271 24.4636 22.8937C23.8843 22.3144 23.4272 21.8573 22.4643 21.8573C21.4193 21.859 20.4724 21.2421 20.0517 20.2855C20.0007 20.1972 19.9349 20.0833 19.8881 20.0181C19.8144 19.9983 19.745 19.9646 19.6839 19.9188C19.0427 20.2488 18.354 20.4772 17.6427 20.5957C17.6442 20.6363 17.6475 20.6743 17.6491 20.7147C19.5125 21.0876 21.3521 22.9222 22.2865 23.8566C24.3119 25.882 25.9679 26.4109 27.6571 25.5642C27.6631 25.5611 27.6691 25.5596 27.6752 25.5566L27.6864 25.5519C27.7943 25.5 27.9062 25.4569 28.0209 25.4228C28.2563 25.1887 28.452 24.9179 28.6004 24.6209C28.7511 24.3221 29.1152 24.2016 29.4143 24.3515C29.7135 24.5013 29.8351 24.865 29.686 25.1646C29.6481 25.2405 29.5845 25.3568 29.5066 25.4862C29.9822 25.6645 30.4174 25.9361 30.7865 26.2852C31.0199 26.5229 31.0182 26.9043 30.7826 27.1399C30.5471 27.3754 30.1657 27.3772 29.928 27.1437C29.5384 26.7606 29.0095 26.5529 28.4633 26.5687C28.3573 26.6228 28.244 26.6614 28.127 26.6834C26.8132 27.34 25.2622 27.317 23.9685 26.6216C24.1244 27.1461 24.2251 27.6854 24.2688 28.2308C24.6507 28.4264 25.0728 28.5308 25.5019 28.5359C25.8371 28.5364 26.1086 28.8087 26.1081 29.144C26.1075 29.4792 25.8353 29.7505 25.5 29.75C25.1639 29.7428 24.8296 29.6979 24.5034 29.616C24.6399 29.9469 24.8729 30.2289 25.1722 30.4253C25.4653 30.5826 25.5786 30.9456 25.4271 31.2418C25.277 31.5366 24.9173 31.6552 24.6213 31.5074C23.5904 30.8839 22.9928 29.738 23.0715 28.5357C23.0393 27.3876 22.6797 26.2727 22.0351 25.3221C22.0115 25.2933 21.991 25.2622 21.9734 25.2294C21.7924 25.067 21.6108 24.8979 21.4279 24.715C20.699 23.9861 19.1361 22.4268 17.718 21.9817C17.8386 24.5854 18.4087 27.1485 19.4031 29.5579C20.6481 32.2263 23.3076 33.9494 26.2518 33.9953C26.4048 33.9983 28.9816 34 29.1429 34C32.7282 34 34 31.0563 34 28.5357C34 19.1031 33.3893 16.4807 32.8171 14.7636Z" fill="#F7B289"/>
<path d="M17.6267 5.15067C17.6321 5.066 17.6392 4.98087 17.6482 4.89354C17.653 4.84699 17.6589 4.80077 17.665 4.75349C17.6762 4.6667 17.6904 4.57984 17.7064 4.49179C17.7157 4.44059 17.7252 4.39012 17.7364 4.33865C17.7543 4.25677 17.7768 4.17529 17.8001 4.09335C17.8164 4.03551 17.8315 3.978 17.8507 3.92043C17.8732 3.85395 17.9019 3.78881 17.9287 3.72307C18.0046 3.52936 18.1003 3.34402 18.2142 3.1699V0.607152C18.214 0.271934 17.9422 0.000199219 17.607 0H16.3927C16.0575 0.000199219 15.7858 0.271934 15.7856 0.607152V3.17004C15.8994 3.34415 15.9951 3.52949 16.071 3.7232C16.0979 3.78894 16.1265 3.85409 16.149 3.92056C16.1683 3.97813 16.1833 4.03564 16.1997 4.09348C16.223 4.17536 16.2454 4.25684 16.2634 4.33879C16.2746 4.39025 16.284 4.44072 16.2933 4.49192C16.3094 4.57991 16.3236 4.66683 16.3347 4.75362C16.3408 4.80084 16.3468 4.84706 16.3515 4.89368C16.3606 4.98093 16.3676 5.06613 16.373 5.1508C16.3759 5.19596 16.3794 5.24052 16.3814 5.28461C16.3852 5.36702 16.3873 5.44578 16.3889 5.52434C16.3897 5.56564 16.3914 5.60741 16.3918 5.64719C16.3928 5.74872 16.3928 5.84554 16.3926 5.93765L16.3926 5.95173V6.07152C16.3926 6.45787 16.3976 6.82444 16.4055 7.17945C16.4063 7.21969 16.4068 7.26139 16.4078 7.30123C16.4159 7.63373 16.4278 7.95115 16.4419 8.25848C16.4444 8.31167 16.4467 8.36546 16.4493 8.41792C16.4642 8.71323 16.4814 8.99805 16.5009 9.2723C16.5047 9.32497 16.5085 9.37689 16.5124 9.42876C16.5328 9.69857 16.5549 9.96007 16.5791 10.2113C16.5834 10.256 16.5881 10.2993 16.5925 10.3436C16.6178 10.5965 16.6444 10.8429 16.6728 11.0792C16.6763 11.1083 16.6801 11.1359 16.6836 11.1648C16.7105 11.3848 16.7386 11.5979 16.7676 11.8055C16.7728 11.843 16.7779 11.8817 16.7831 11.919C16.8127 12.1271 16.8432 12.3285 16.8739 12.5263C16.8824 12.5807 16.8908 12.6358 16.8993 12.6896C16.9281 12.8703 16.957 13.0477 16.9859 13.222L17 13.3045L17.0138 13.2219C17.0429 13.0477 17.0718 12.87 17.1005 12.6888C17.1089 12.6363 17.1171 12.5825 17.1254 12.5293C17.1563 12.3305 17.1869 12.1281 17.2166 11.9189C17.2219 11.8817 17.227 11.843 17.2322 11.8054C17.261 11.5977 17.2892 11.3847 17.3161 11.1647C17.3196 11.1359 17.3234 11.1082 17.3268 11.0791C17.3553 10.8427 17.3819 10.5963 17.4072 10.3434C17.4116 10.2991 17.4162 10.2559 17.4205 10.2112C17.4447 9.95994 17.4669 9.69843 17.4872 9.42862C17.4911 9.37676 17.495 9.32477 17.4988 9.27217C17.5185 8.99765 17.5358 8.71223 17.5505 8.4158C17.553 8.36446 17.5554 8.31194 17.5577 8.25994C17.572 7.95215 17.5838 7.63413 17.5919 7.3011C17.5929 7.26126 17.5934 7.21955 17.5943 7.17931C17.602 6.8243 17.6071 6.45774 17.6071 6.07139V5.95159L17.6071 5.93752C17.607 5.84534 17.607 5.74859 17.6079 5.64705C17.6083 5.60721 17.61 5.56551 17.6108 5.5242C17.6123 5.44571 17.6145 5.36689 17.6183 5.28448C17.6204 5.24038 17.6239 5.19582 17.6267 5.15067Z" fill="#F7B289"/>
</g>
<defs>
<clipPath id="clip0_0_139">
<rect width="34" height="34" fill="white"/>
</clipPath>
</defs>
</svg>
