<svg width="36" height="36" viewBox="0 0 36 36" fill="none" xmlns="http://www.w3.org/2000/svg">
<path d="M24.21 4.44032L10.665 8.94032C1.56005 11.9853 1.56005 16.9503 10.665 19.9803L14.685 21.3153L16.02 25.3353C19.05 34.4403 24.03 34.4403 27.06 25.3353L31.575 11.8053C33.585 5.73032 30.285 2.41533 24.21 4.44032ZM24.69 12.5103L18.99 18.2403C18.765 18.4653 18.48 18.5703 18.195 18.5703C17.91 18.5703 17.625 18.4653 17.4 18.2403C16.965 17.8053 16.965 17.0853 17.4 16.6503L23.1 10.9203C23.535 10.4853 24.255 10.4853 24.69 10.9203C25.125 11.3553 25.125 12.0753 24.69 12.5103Z" fill="white"/>
</svg>
