<svg width="48" height="48" viewBox="0 0 48 48" fill="none" xmlns="http://www.w3.org/2000/svg">
<path d="M42.8571 9.42845C42.8569 8.9552 42.4732 8.57166 42 8.57129H38.5714C38.0982 8.57157 37.7147 8.9552 37.7143 9.42845V10.2856H42.8571V9.42845Z" fill="#FF814E"/>
<path d="M17.1429 6.85724C17.1441 5.91102 17.9109 5.14415 18.8572 5.14293H28.2857C29.232 5.14415 29.9988 5.91093 30 6.85724V10.2858H31.7143V6.85724C31.7125 4.96452 30.1785 3.43059 28.2858 3.42871H18.8572C16.9644 3.43059 15.4305 4.96452 15.4286 6.85724V10.2858H17.143V6.85724H17.1429Z" fill="#FF814E"/>
<path d="M28.2857 6.85742H18.8572V10.286H28.2857V6.85742Z" fill="#FF814E"/>
<path d="M45.4285 12H2.57147C1.15191 12.0016 0.00159375 13.1519 0 14.5715V42C0.00159375 43.4196 1.15191 44.5699 2.57147 44.5715H45.4286C46.8481 44.5699 47.9985 43.4196 48 42V14.5715C47.9985 13.1519 46.8481 12.0016 45.4285 12ZM35.1428 30.8572C35.1416 31.8035 34.3748 32.5702 33.4285 32.5715H27.4285V38.5715C27.4273 39.5178 26.6605 40.2846 25.7142 40.2858H20.5714C19.6251 40.2846 18.8583 39.5178 18.8571 38.5715V32.5715H12.8571C11.9107 32.5702 11.144 31.8035 11.1427 30.8572V25.7143C11.144 24.768 11.9107 24.0012 12.8571 24H18.8571V18C18.8583 17.0537 19.6251 16.2869 20.5714 16.2857H25.7142C26.6605 16.2869 27.4273 17.0537 27.4285 18V24H33.4285C34.3748 24.0012 35.1416 24.768 35.1428 25.7143V30.8572Z" fill="#FF814E"/>
<path d="M10.2857 9.42845C10.2854 8.9552 9.90176 8.57166 9.42851 8.57129H5.99998C5.52673 8.57157 5.1432 8.9552 5.14282 9.42845V10.2856H10.2857V9.42845Z" fill="#FF814E"/>
<path d="M25.7143 24V18H20.5715V24C20.5703 24.9463 19.8035 25.7131 18.8572 25.7143H12.8572V30.8572H18.8572C19.8034 30.8584 20.5703 31.6252 20.5715 32.5715V38.5715H25.7143V32.5715C25.7156 31.6252 26.4823 30.8584 27.4286 30.8572H33.4286V25.7126L27.4286 25.7143C26.4823 25.7131 25.7156 24.9463 25.7143 24Z" fill="#FF814E"/>
</svg>
