<svg width="26" height="26" viewBox="0 0 26 26" fill="none" xmlns="http://www.w3.org/2000/svg">
<path d="M9.20841 20.5837H8.66675C4.33341 20.5837 2.16675 19.5003 2.16675 14.0837L2.16675 8.66699C2.16675 4.33366 4.33341 2.16699 8.66675 2.16699L17.3334 2.16699C21.6667 2.16699 23.8334 4.33366 23.8334 8.66699L23.8334 14.0837C23.8334 18.417 21.6667 20.5837 17.3334 20.5837H16.7917C16.4559 20.5837 16.1309 20.7462 15.9251 21.017L14.3001 23.1837C13.5851 24.137 12.4151 24.137 11.7001 23.1837L10.0751 21.017C9.90175 20.7787 9.50091 20.5837 9.20841 20.5837Z" stroke="#030401" stroke-width="1.5" stroke-miterlimit="10" stroke-linecap="round" stroke-linejoin="round"/>
<path d="M17.3294 11.9167H17.3391" stroke="#030401" stroke-width="2" stroke-linecap="round" stroke-linejoin="round"/>
<path d="M12.9952 11.9167H13.0049" stroke="#030401" stroke-width="2" stroke-linecap="round" stroke-linejoin="round"/>
<path d="M8.66072 11.9167H8.67045" stroke="#030401" stroke-width="2" stroke-linecap="round" stroke-linejoin="round"/>
</svg>
