<svg width="48" height="48" viewBox="0 0 48 48" fill="none" xmlns="http://www.w3.org/2000/svg">
<g clip-path="url(#clip0_0_131)">
<path d="M46.9214 10.1924C45.4473 6.4257 42.6327 3.53745 38.9957 2.0585C37.4231 1.41951 35.8304 1.09521 34.2634 1.09521C29.0514 1.09521 25.4049 4.58481 23.982 6.22071C22.5663 4.57921 18.9357 1.0752 13.7254 1.0752C12.1631 1.0752 10.5753 1.39869 9.00504 2.03688C5.36811 3.51583 2.55273 6.40408 1.07858 10.1699C-0.494065 14.1888 -0.341125 18.7434 1.49896 22.6678C4.11176 28.2385 10.0516 36.9112 23.5111 46.5873L23.978 46.9236L24.4448 46.5873C37.9708 36.8632 43.9042 28.2233 46.4994 22.6878C48.3411 18.765 48.494 14.2104 46.9214 10.1924Z" fill="#5E82F8"/>
</g>
<defs>
<clipPath id="clip0_0_131">
<rect width="48" height="48" fill="white"/>
</clipPath>
</defs>
</svg>
