<svg width="25" height="24" viewBox="0 0 25 24" fill="none" xmlns="http://www.w3.org/2000/svg">
<path d="M8.60003 19H8.09415C4.04709 19 2.02356 18 2.02356 13V8C2.02356 4 4.04709 2 8.09415 2H16.1883C20.2353 2 22.2589 4 22.2589 8V13C22.2589 17 20.2353 19 16.1883 19H15.6824C15.3687 19 15.0652 19.15 14.873 19.4L13.3553 21.4C12.6876 22.28 11.5949 22.28 10.9271 21.4L9.40944 19.4C9.24756 19.18 8.87321 19 8.60003 19Z" stroke="#696969" stroke-width="1.5" stroke-miterlimit="10" stroke-linecap="round" stroke-linejoin="round"/>
<path fill-rule="evenodd" clip-rule="evenodd" d="M16.1847 11H16.1937H16.1847Z" fill="#696969"/>
<path d="M16.1847 11H16.1937" stroke="#696969" stroke-width="2" stroke-linecap="round" stroke-linejoin="round"/>
<path d="M12.1366 11H12.1457" stroke="#696969" stroke-width="2" stroke-linecap="round" stroke-linejoin="round"/>
<path d="M8.08858 11H8.09767" stroke="#696969" stroke-width="2" stroke-linecap="round" stroke-linejoin="round"/>
</svg>
