<svg width="120" height="120" viewBox="0 0 120 120" fill="none" xmlns="http://www.w3.org/2000/svg">
<circle cx="60" cy="60" r="60" fill="#EEF4FD"/>
<path d="M60 28C51.6468 28 44.875 34.7718 44.875 43.125C44.875 51.4782 44.875 54.25 44.875 54.25H52.375C52.375 54.25 52.375 47.3361 52.375 43.125C52.375 38.9139 55.7889 35.5 60 35.5C64.2111 35.5 67.625 38.9139 67.625 43.125C67.625 47.3361 67.625 54.25 67.625 54.25H75.125C75.125 54.25 75.125 51.4782 75.125 43.125C75.125 34.7718 68.3532 28 60 28Z" fill="#5892EC"/>
<path d="M37.375 58V92H82.625V58H37.375ZM61.875 75.433V81.5625H58.125V75.433C57.0052 74.7836 56.25 73.5725 56.25 72.1875C56.25 70.1198 57.9323 68.4375 60 68.4375C62.0677 68.4375 63.75 70.1198 63.75 72.1875C63.75 73.5725 62.9948 74.7836 61.875 75.433Z" fill="#5892EC"/>
</svg>
