<svg width="18" height="18" viewBox="0 0 18 18" fill="none" xmlns="http://www.w3.org/2000/svg">
<path d="M10.2969 2.63248L11.6169 5.27248C11.7969 5.63998 12.2769 5.99248 12.6819 6.05998L15.0744 6.45748C16.6044 6.71248 16.9644 7.82248 15.8619 8.91748L14.0019 10.7775C13.6869 11.0925 13.5144 11.7 13.6119 12.135L14.1444 14.4375C14.5644 16.26 13.5969 16.965 11.9844 16.0125L9.74194 14.685C9.33694 14.445 8.66944 14.445 8.25694 14.685L6.01444 16.0125C4.40944 16.965 3.43444 16.2525 3.85444 14.4375L4.38694 12.135C4.48444 11.7 4.31194 11.0925 3.99694 10.7775L2.13694 8.91748C1.04194 7.82248 1.39444 6.71248 2.92444 6.45748L5.31694 6.05998C5.71444 5.99248 6.19444 5.63998 6.37444 5.27248L7.69444 2.63248C8.41444 1.19998 9.58444 1.19998 10.2969 2.63248Z" fill="#DCDCDC"/>
</svg>
